<svg id="Layer_2" data-name="Layer 2" xmlns="http://www.w3.org/2000/svg" viewBox="0 0 869.82 743.37"><defs><style>.cls-1{fill:none;}.cls-1,.cls-2,.cls-3{stroke:#49494a;}.cls-1,.cls-3{stroke-linecap:round;stroke-linejoin:round;stroke-width:2px;}.cls-2{stroke-miterlimit:10;}</style></defs><rect class="cls-1" x="407.55" y="602.64" width="81.23" height="81.23" rx="2"/><rect class="cls-1" x="417.08" y="611.26" width="62.74" height="62.74" rx="2"/><line class="cls-1" x1="425.93" y1="664.35" x2="470.63" y2="664.35"/><line class="cls-1" x1="422.15" y1="593.6" x2="422.15" y2="602.64"/><line class="cls-1" x1="434.84" y1="593.6" x2="434.84" y2="602.64"/><line class="cls-1" x1="448.16" y1="593.6" x2="448.16" y2="602.64"/><line class="cls-1" x1="461.47" y1="593.6" x2="461.47" y2="602.64"/><line class="cls-1" x1="473.54" y1="593.6" x2="473.54" y2="602.64"/><line class="cls-1" x1="422.15" y1="684.78" x2="422.15" y2="693.83"/><line class="cls-1" x1="434.84" y1="684.78" x2="434.84" y2="693.83"/><line class="cls-1" x1="448.16" y1="684.78" x2="448.16" y2="693.83"/><line class="cls-1" x1="461.47" y1="684.78" x2="461.47" y2="693.83"/><line class="cls-1" x1="473.54" y1="684.78" x2="473.54" y2="693.83"/><line class="cls-1" x1="427.35" y1="619.14" x2="427.35" y2="624.8"/><line class="cls-1" x1="434.84" y1="619.14" x2="434.84" y2="624.8"/><line class="cls-1" x1="439.21" y1="619.14" x2="439.21" y2="624.8"/><line class="cls-1" x1="451.48" y1="619.14" x2="451.48" y2="624.8"/><line class="cls-1" x1="456.27" y1="619.14" x2="456.27" y2="624.8"/><line class="cls-1" x1="468.75" y1="619.14" x2="468.75" y2="624.8"/><line class="cls-1" x1="488.78" y1="667.25" x2="497.82" y2="667.25"/><line class="cls-1" x1="488.78" y1="654.56" x2="497.82" y2="654.56"/><line class="cls-1" x1="488.78" y1="641.23" x2="497.82" y2="641.23"/><polyline class="cls-1" points="563.04 542.02 563.04 629 488.78 627.93 497.82 627.93"/><line class="cls-1" x1="488.78" y1="615.86" x2="497.82" y2="615.86"/><line class="cls-1" x1="398.51" y1="668.32" x2="407.55" y2="668.32"/><line class="cls-1" x1="398.51" y1="655.63" x2="407.55" y2="655.63"/><polyline class="cls-1" points="398.51 642.31 407.55 642.31 366.95 642.63 366.95 674 264.22 674"/><polyline class="cls-1" points="398.51 629 407.55 629 393.39 629 393.39 585.37 504.85 585.37 504.85 533.76 478.19 533.27"/><line class="cls-1" x1="398.51" y1="616.93" x2="407.55" y2="616.93"/><rect class="cls-1" x="677.04" y="487.71" width="76.78" height="32.48" rx="2"/><line class="cls-1" x1="688.46" y1="483.35" x2="688.46" y2="487.71"/><line class="cls-1" x1="706.52" y1="483.35" x2="706.52" y2="487.71"/><line class="cls-1" x1="724.58" y1="483.35" x2="724.58" y2="487.71"/><line class="cls-1" x1="742.63" y1="483.35" x2="742.63" y2="487.71"/><line class="cls-1" x1="688.35" y1="520.19" x2="688.35" y2="524.55"/><line class="cls-1" x1="706.41" y1="520.19" x2="706.41" y2="524.55"/><line class="cls-1" x1="724.47" y1="520.19" x2="724.47" y2="524.55"/><line class="cls-1" x1="742.52" y1="520.19" x2="742.52" y2="524.55"/><line class="cls-1" x1="753.83" y1="494.32" x2="759.05" y2="494.32"/><line class="cls-1" x1="753.83" y1="503.95" x2="759.05" y2="503.95"/><line class="cls-1" x1="753.83" y1="513.25" x2="759.05" y2="513.25"/><line class="cls-1" x1="671.38" y1="494.32" x2="676.61" y2="494.32"/><polyline class="cls-1" points="656.3 503.95 676.61 503.95 671.38 503.95"/><line class="cls-1" x1="671.38" y1="513.25" x2="676.61" y2="513.25"/><line class="cls-1" x1="684.51" y1="511.3" x2="746.4" y2="511.3"/><rect class="cls-1" x="366.62" y="404.73" width="22.81" height="34.99" rx="2"/><line class="cls-1" x1="381.61" y1="404.73" x2="381.61" y2="439.72"/><rect class="cls-1" x="352.3" y="447.89" width="37.13" height="33.53" rx="1"/><line class="cls-1" x1="381.61" y1="447.89" x2="381.61" y2="481.42"/><line class="cls-1" x1="381.61" y1="455.36" x2="352.3" y2="455.36"/><line class="cls-1" x1="381.61" y1="461.32" x2="352.3" y2="461.32"/><line class="cls-1" x1="381.61" y1="467.29" x2="352.3" y2="467.29"/><line class="cls-1" x1="381.61" y1="473.25" x2="352.3" y2="473.25"/><rect class="cls-1" x="791.88" y="693.46" width="14.12" height="14.12" rx="4"/><rect class="cls-2" x="794.25" y="707.23" width="9.46" height="6.42" rx="2"/><circle class="cls-1" cx="677.04" cy="392.21" r="11.3"/><circle class="cls-1" cx="677.04" cy="392.21" r="6.31"/><rect class="cls-1" x="677.26" y="544.2" width="76.78" height="32.48" rx="2"/><line class="cls-1" x1="688.68" y1="539.84" x2="688.68" y2="544.2"/><line class="cls-1" x1="706.74" y1="539.84" x2="706.74" y2="544.2"/><line class="cls-1" x1="724.79" y1="539.84" x2="724.79" y2="544.2"/><line class="cls-1" x1="742.85" y1="539.84" x2="742.85" y2="544.2"/><line class="cls-1" x1="688.56" y1="576.67" x2="688.56" y2="581.03"/><line class="cls-1" x1="706.62" y1="576.67" x2="706.62" y2="581.03"/><line class="cls-1" x1="724.68" y1="576.67" x2="724.68" y2="581.03"/><line class="cls-1" x1="742.74" y1="576.67" x2="742.74" y2="581.03"/><line class="cls-1" x1="754.04" y1="550.81" x2="759.27" y2="550.81"/><line class="cls-1" x1="754.04" y1="560.43" x2="759.27" y2="560.43"/><line class="cls-1" x1="754.04" y1="569.74" x2="759.27" y2="569.74"/><line class="cls-1" x1="671.6" y1="550.81" x2="676.83" y2="550.81"/><line class="cls-1" x1="671.6" y1="560.43" x2="676.83" y2="560.43"/><line class="cls-1" x1="671.6" y1="569.74" x2="676.83" y2="569.74"/><line class="cls-1" x1="684.73" y1="567.78" x2="746.61" y2="567.78"/><rect class="cls-1" x="677.26" y="599.62" width="76.78" height="32.48" rx="2"/><line class="cls-1" x1="688.68" y1="595.26" x2="688.68" y2="599.62"/><line class="cls-1" x1="706.74" y1="595.26" x2="706.74" y2="599.62"/><line class="cls-1" x1="724.79" y1="595.26" x2="724.79" y2="599.62"/><line class="cls-1" x1="742.85" y1="595.26" x2="742.85" y2="599.62"/><line class="cls-1" x1="688.56" y1="632.1" x2="688.56" y2="636.46"/><line class="cls-1" x1="706.62" y1="632.1" x2="706.62" y2="636.46"/><line class="cls-1" x1="724.68" y1="632.1" x2="724.68" y2="636.46"/><line class="cls-1" x1="742.74" y1="632.1" x2="742.74" y2="636.46"/><line class="cls-1" x1="754.04" y1="606.23" x2="759.27" y2="606.23"/><line class="cls-1" x1="754.04" y1="615.86" x2="759.27" y2="615.86"/><line class="cls-1" x1="754.04" y1="625.16" x2="759.27" y2="625.16"/><line class="cls-1" x1="671.6" y1="606.23" x2="676.83" y2="606.23"/><line class="cls-1" x1="671.6" y1="615.86" x2="676.83" y2="615.86"/><line class="cls-1" x1="671.6" y1="625.16" x2="676.83" y2="625.16"/><line class="cls-1" x1="684.73" y1="623.2" x2="746.61" y2="623.2"/><rect class="cls-1" x="677.5" y="655.04" width="76.78" height="32.48" rx="2"/><line class="cls-1" x1="688.91" y1="650.68" x2="688.91" y2="655.04"/><line class="cls-1" x1="706.97" y1="650.68" x2="706.97" y2="655.04"/><line class="cls-1" x1="725.03" y1="650.68" x2="725.03" y2="655.04"/><line class="cls-1" x1="743.09" y1="650.68" x2="743.09" y2="655.04"/><line class="cls-1" x1="688.8" y1="687.52" x2="688.8" y2="691.88"/><line class="cls-1" x1="706.86" y1="687.52" x2="706.86" y2="691.88"/><line class="cls-1" x1="724.92" y1="687.52" x2="724.92" y2="691.88"/><polyline class="cls-1" points="742.98 691.88 742.98 687.52 742.98 706.74"/><line class="cls-1" x1="754.28" y1="661.66" x2="759.5" y2="661.66"/><line class="cls-1" x1="754.28" y1="671.28" x2="759.5" y2="671.28"/><line class="cls-1" x1="754.28" y1="680.58" x2="759.5" y2="680.58"/><line class="cls-1" x1="671.84" y1="661.66" x2="677.06" y2="661.66"/><line class="cls-1" x1="671.84" y1="671.28" x2="677.06" y2="671.28"/><line class="cls-1" x1="671.84" y1="680.58" x2="677.06" y2="680.58"/><line class="cls-1" x1="684.96" y1="678.63" x2="746.85" y2="678.63"/><line class="cls-1" x1="418.86" y1="533.27" x2="403.03" y2="533.27"/><circle class="cls-1" cx="173.48" cy="554.46" r="21.6"/><line class="cls-1" x1="190.6" y1="541.31" x2="158.04" y2="569.55"/><line class="cls-1" x1="179.19" y1="560.27" x2="185.03" y2="566.46"/><line class="cls-1" x1="162.21" y1="545.9" x2="168.06" y2="552.09"/><line class="cls-1" x1="168.35" y1="546.2" x2="161.91" y2="551.78"/><circle class="cls-1" cx="124.11" cy="621.97" r="21.6"/><line class="cls-1" x1="141.24" y1="608.82" x2="108.67" y2="637.06"/><line class="cls-1" x1="129.82" y1="627.78" x2="135.67" y2="633.97"/><line class="cls-1" x1="112.84" y1="613.41" x2="118.69" y2="619.6"/><line class="cls-1" x1="118.98" y1="613.71" x2="112.55" y2="619.29"/><rect class="cls-1" x="231.01" y="547.19" width="30.48" height="56.33" rx="2" transform="translate(492.49 1150.71) rotate(180)"/><line class="cls-1" x1="231.01" y1="597.35" x2="261.48" y2="597.35"/><line class="cls-1" x1="231.01" y1="590.03" x2="261.48" y2="590.03"/><line class="cls-1" x1="231.01" y1="583.83" x2="261.48" y2="583.83"/><line class="cls-1" x1="231.01" y1="577.63" x2="261.48" y2="577.63"/><polyline class="cls-1" points="231.01 571.32 261.48 571.32 277.8 571.32 314.82 603.52 366.62 603.52"/><line class="cls-1" x1="231.34" y1="564.7" x2="261.82" y2="564.7"/><line class="cls-1" x1="231.01" y1="558.52" x2="261.48" y2="558.52"/><line class="cls-1" x1="230.22" y1="552.87" x2="260.69" y2="552.87"/><rect class="cls-1" x="418.86" y="521.54" width="59.32" height="22.96" rx="2"/><line class="cls-1" x1="478.19" y1="533.27" x2="418.86" y2="533.27"/><line class="cls-1" x1="430.14" y1="533.02" x2="430.14" y2="537.18"/><line class="cls-1" x1="437.34" y1="533.02" x2="437.34" y2="537.18"/><line class="cls-1" x1="444.55" y1="533.02" x2="444.55" y2="537.18"/><line class="cls-1" x1="451.65" y1="533.02" x2="451.65" y2="537.18"/><line class="cls-1" x1="458.97" y1="533.02" x2="458.97" y2="537.18"/><line class="cls-1" x1="466.07" y1="533.02" x2="466.07" y2="537.18"/><circle class="cls-1" cx="563.23" cy="522.37" r="13.05"/><line class="cls-1" x1="563.05" y1="535.42" x2="563.04" y2="529.28"/><circle class="cls-1" cx="563.23" cy="522.37" r="19.51"/><rect class="cls-1" x="419.29" y="366.92" width="11.37" height="38.56" rx="2"/><rect class="cls-1" x="410.13" y="359.4" width="29.69" height="53.59" rx="2"/><line class="cls-1" x1="440.57" y1="371.95" x2="445.78" y2="371.95"/><line class="cls-1" x1="440.57" y1="383.42" x2="445.78" y2="383.42"/><polyline class="cls-1" points="677.04 380.91 677.04 366.92 493.3 366.92 472.29 393.45 440.57 393.45 445.78 393.45"/><line class="cls-1" x1="440.57" y1="403.88" x2="445.78" y2="403.88"/><line class="cls-1" x1="404.5" y1="372.8" x2="409.7" y2="372.8"/><polyline class="cls-1" points="409.7 384.27 404.5 384.27 381.61 384.27 381.61 404.73"/><line class="cls-1" x1="404.5" y1="394.3" x2="409.7" y2="394.3"/><line class="cls-1" x1="404.5" y1="404.73" x2="409.7" y2="404.73"/><circle class="cls-1" cx="625.64" cy="522.37" r="13.05"/><line class="cls-1" x1="638.69" y1="522.61" x2="632.55" y2="522.59"/><circle class="cls-1" cx="625.64" cy="522.37" r="19.51"/><circle class="cls-1" cx="625.64" cy="578.85" r="13.05"/><line class="cls-1" x1="638.69" y1="578.72" x2="632.55" y2="578.88"/><circle class="cls-1" cx="625.64" cy="578.85" r="19.51"/><circle class="cls-1" cx="626.96" cy="468.2" r="13.05"/><line class="cls-1" x1="640.01" y1="468.4" x2="633.87" y2="468.4"/><circle class="cls-1" cx="626.96" cy="468.2" r="19.51"/><polyline class="cls-1" points="522.02 629 522.02 693.83 495.29 693.83 495.29 705.46"/><polyline class="cls-1" points="504.85 533.76 522.02 533.76 522.02 565.8 563.23 606.23"/><polyline class="cls-1" points="563.23 619.14 587.15 619.14 587.15 678.63 677.04 678.63"/><line class="cls-1" x1="522.03" y1="678.63" x2="587.15" y2="678.63"/><line class="cls-1" x1="625.64" y1="678.63" x2="625.64" y2="599.62"/><line class="cls-1" x1="625.64" y1="558.08" x2="625.64" y2="542.02"/><line class="cls-1" x1="625.64" y1="501.18" x2="625.64" y2="487.71"/><polyline class="cls-1" points="646.47 468.2 794.25 468.2 794.25 581.14 848.65 581.14"/><polyline class="cls-1" points="665.9 468.4 665.9 477.75 656.3 487.71 656.3 503.95 656.3 678.63"/><line class="cls-1" x1="656.3" y1="559.34" x2="677.5" y2="559.34"/><line class="cls-1" x1="656.3" y1="614.86" x2="677.5" y2="614.86"/><circle class="cls-1" cx="763.08" cy="451.64" r="7.02"/><polyline class="cls-1" points="679.74 468.2 694.72 451.64 756.06 451.64"/><line class="cls-1" x1="366.95" y1="642.63" x2="366.95" y2="481.42"/><line class="cls-1" x1="366.95" y1="629" x2="407.55" y2="629"/><polyline class="cls-1" points="389.43 429.32 417.08 429.32 422.15 424.77 458.97 424.77"/><circle class="cls-3" cx="458.97" cy="424.77" r="3.25"/><line class="cls-1" x1="848.77" y1="678.63" x2="754.28" y2="678.63"/><polyline class="cls-1" points="783.73 678.63 783.73 591.91 776.52 591.91 776.52 547.65 804.19 547.65 804.19 496.06 812.55 487.71 812.55 392.21 848.65 392.21"/><circle class="cls-1" cx="713.01" cy="392.49" r="11.3"/><circle class="cls-1" cx="713.01" cy="392.49" r="6.31"/><circle class="cls-1" cx="748.97" cy="392.21" r="11.3"/><circle class="cls-1" cx="748.97" cy="392.21" r="6.31"/><circle class="cls-1" cx="784.93" cy="392.49" r="11.3"/><circle class="cls-1" cx="784.93" cy="392.49" r="6.31"/><polyline class="cls-1" points="748.97 403.52 748.97 413 633.98 413 626.96 413 626.96 448.69"/><polyline class="cls-1" points="673.87 433.36 724.31 433.36 724.31 413"/><rect class="cls-1" x="204.9" y="654.48" width="59.32" height="22.96" rx="2"/><line class="cls-1" x1="264.22" y1="666.22" x2="204.9" y2="666.22"/><line class="cls-1" x1="216.17" y1="665.96" x2="216.17" y2="670.13"/><line class="cls-1" x1="223.38" y1="665.96" x2="223.38" y2="670.13"/><line class="cls-1" x1="230.59" y1="665.96" x2="230.59" y2="670.13"/><line class="cls-1" x1="237.69" y1="665.96" x2="237.69" y2="670.13"/><line class="cls-1" x1="245" y1="665.96" x2="245" y2="670.13"/><line class="cls-1" x1="252.1" y1="665.96" x2="252.1" y2="670.13"/><line class="cls-1" x1="245" y1="603.52" x2="245" y2="654.48"/><polyline class="cls-1" points="151.89 554.46 78.77 554.46 63.68 569.54 63.68 603.52"/><circle class="cls-1" cx="63.68" cy="614.86" r="11.3"/><circle class="cls-1" cx="63.68" cy="614.86" r="6.31"/><circle class="cls-3" cx="208.23" cy="515.03" r="3.25"/><polyline class="cls-1" points="173.48 532.87 173.48 522.97 181.42 515.03 204.9 515.03"/><polyline class="cls-1" points="173.48 576.06 173.48 662.6 204.9 662.6"/><polyline class="cls-1" points="173.48 610.6 184.29 621.41 184.29 638.1"/><circle class="cls-3" cx="184.29" cy="640.73" r="3.25"/><rect class="cls-1" x="46.69" y="638.54" width="11.37" height="38.56" rx="2" transform="translate(-605.44 710.2) rotate(-90)"/><rect class="cls-1" x="37.53" y="631.03" width="29.69" height="53.59" rx="2" transform="translate(-605.44 710.2) rotate(-90)"/><line class="cls-1" x1="38.13" y1="642.23" x2="38.13" y2="637.02"/><line class="cls-1" x1="49.6" y1="642.23" x2="49.6" y2="637.02"/><line class="cls-1" x1="59.63" y1="642.23" x2="59.63" y2="637.02"/><polyline class="cls-1" points="70.07 637.02 70.07 642.23 70.07 629 94.82 629 94.82 589 124.11 589 124.11 600.38"/><line class="cls-1" x1="38.98" y1="678.31" x2="38.98" y2="673.1"/><line class="cls-1" x1="50.45" y1="678.31" x2="50.45" y2="673.1"/><line class="cls-1" x1="60.48" y1="678.31" x2="60.48" y2="673.1"/><line class="cls-1" x1="70.91" y1="678.31" x2="70.91" y2="673.1"/><circle class="cls-1" cx="296.42" cy="655.63" r="6.03"/><polyline class="cls-1" points="302.45 655.63 317.89 655.63 336.07 673.81"/><line class="cls-1" x1="796.24" y1="392.49" x2="812.55" y2="392.49"/><line class="cls-1" x1="773.63" y1="392.49" x2="760.27" y2="392.49"/><line class="cls-1" x1="713.01" y1="403.8" x2="713.01" y2="413"/><line class="cls-1" x1="701.7" y1="392.49" x2="688.35" y2="392.49"/><polyline class="cls-1" points="748.97 380.91 748.97 343.93 713.01 343.93 713.01 381.19"/><line class="cls-1" x1="730.56" y1="343.93" x2="730.56" y2="61.52"/><polygon class="cls-1" points="702.45 61.52 758.67 61.52 730.56 92.98 702.45 61.52"/><path class="cls-1" d="M695.56,46.68a20.31,20.31,0,0,0,0,35"/><path class="cls-1" d="M685.12,38.12c-9,5.19-15,14.44-15,25s6,19.81,15,25"/><path class="cls-1" d="M675.12,29c-12,6.75-20,18.78-20,32.5s8,25.75,20,32.5"/><path class="cls-1" d="M765.56,46.68a20.31,20.31,0,0,1,0,35"/><path class="cls-1" d="M776,38.12c9,5.19,15,14.44,15,25s-6,19.81-15,25"/><path class="cls-1" d="M786,29c12,6.75,20,18.78,20,32.5S798,87.27,786,94"/></svg>