<svg id="Layer_1" data-name="Layer 1" xmlns="http://www.w3.org/2000/svg" viewBox="0 0 510.09 196.21"><defs><style>.cls-1{fill:#d10d0d;}.cls-2{fill:none;}</style></defs><path class="cls-1" d="M16,107.34V24l83.6,0,14,14V93.33l-14,14Zm63.33-13.9,7-7V44.9l-7-6.95-36-.1V93.44Z"/><path class="cls-1" d="M120.43,93.33V38l14-14h79.91v83.43H187V37.92H154.74l-7,6.95-.1,41.51,7,7H173l.13,14H134Z"/><path class="cls-1" d="M400.38,107.34V38l14.7-14h79.26v83.43H467V37.92H434.69l-6.95,6.95V93.33h25.34v14Z"/><path class="cls-1" d="M221.23,107.34V23.91H344.9l14,14v69.42H331.54V44.76l-6.94-6.95H304.18v69.53H276.82V37.81H249v69.53Z"/><path class="cls-1" d="M365.74,107.34V37.92h27.8v69.42Zm0-75.64V23.91h27.8V31.7Z"/><path d="M23.77,142.17V145h-7.9v-2.79h2.32V117.52H15.87v-2.79h7.9v2.79H21.45v24.65Z"/><path d="M35.22,145H32V114.73h2.53l0,3A6.9,6.9,0,0,1,40.7,114q6.84,0,6.84,6.51V145H44.29V120.54a4.39,4.39,0,0,0-.77-2.75,3.41,3.41,0,0,0-2.82-1,5.46,5.46,0,0,0-3.76,1.58,4.35,4.35,0,0,0-1.72,3.07Z"/><path d="M59.91,145H56.66V114.73h2.53l0,3A6.89,6.89,0,0,1,65.4,114q6.84,0,6.84,6.51V145H69V120.54a4.39,4.39,0,0,0-.76-2.75,3.43,3.43,0,0,0-2.82-1,5.5,5.5,0,0,0-3.77,1.58,4.39,4.39,0,0,0-1.72,3.07Z"/><path d="M96.47,120.54v18.6a6,6,0,0,1-2,4.82q-2,1.69-5.9,1.7T82.66,144a6,6,0,0,1-2-4.82v-18.6a6,6,0,0,1,2-4.81c1.32-1.14,3.29-1.7,5.91-1.7s4.6.56,5.93,1.7A6,6,0,0,1,96.47,120.54Zm-3.25,18.6v-18.6c0-2.48-1.56-3.72-4.66-3.72s-4.65,1.24-4.65,3.72v18.6c0,2.48,1.55,3.73,4.65,3.73S93.22,141.62,93.22,139.14Z"/><path d="M114.28,145H109.4l-6.84-30.23h3.26l6,26.65,6.05-26.65h3.25Z"/><path d="M142.33,145h-2.61v-3a7.74,7.74,0,0,1-2.56,2.68,6.48,6.48,0,0,1-3.49,1q-6.7,0-6.7-6.52v-4.65q0-6.51,6.7-6.51h5.4v-7.63a3.28,3.28,0,0,0-1.07-2.6,4.72,4.72,0,0,0-3.17-.93q-4.14,0-4.14,3.53v2.75h-3.25v-2.56a6.23,6.23,0,0,1,1.83-4.81c1.23-1.14,3.08-1.7,5.56-1.7s4.35.56,5.61,1.7a6.15,6.15,0,0,1,1.88,4.81Zm-3.25-14.19h-5.4a3.22,3.22,0,0,0-2.7,1,4.46,4.46,0,0,0-.74,2.74v4.65a4.5,4.5,0,0,0,.74,2.75,3.22,3.22,0,0,0,2.7,1,5.34,5.34,0,0,0,3.63-1.52,4.63,4.63,0,0,0,1.77-3Z"/><path d="M150.75,114.73h3.34l.07,3.11H161v2.79h-7v19.16a3.5,3.5,0,0,0,.67,2.19,2.26,2.26,0,0,0,1.91.89,2.2,2.2,0,0,0,1.88-.87,3.56,3.56,0,0,0,.65-2.21v-5.53h3.26v5.35a6.08,6.08,0,0,1-1.56,4.49,5.68,5.68,0,0,1-4.21,1.56,5.85,5.85,0,0,1-4.26-1.56,6,6,0,0,1-1.6-4.49Z"/><path d="M172.42,145h-3.25V114.73h3.25Z"/><path d="M190.94,145h-4.89l-6.84-30.23h3.26l6,26.65,6.05-26.65h3.25Z"/><path d="M216,139.14v-2.55h3.25v2.55a6.12,6.12,0,0,1-1.9,4.82q-1.91,1.69-5.72,1.7a8.57,8.57,0,0,1-5.77-1.7,6,6,0,0,1-1.95-4.82v-18.6a6.09,6.09,0,0,1,1.9-4.81c1.27-1.14,3.18-1.7,5.72-1.7s4.47.56,5.77,1.7a6,6,0,0,1,2,4.81v10.23H207.12v8.37c0,2.48,1.47,3.73,4.42,3.73S216,141.62,216,139.14Zm-8.84-18.6V128H216v-7.44c0-2.48-1.48-3.72-4.42-3.72S207.12,118.06,207.12,120.54Z"/><path d="M251.17,114.73v2.79h-6V145h-3.26V117.52h-6v-2.79Z"/><path d="M268.89,139.14v-2.55h3.25v2.55a6.12,6.12,0,0,1-1.9,4.82c-1.28,1.13-3.18,1.7-5.72,1.7a8.57,8.57,0,0,1-5.77-1.7,6.05,6.05,0,0,1-2-4.82v-18.6a6.1,6.1,0,0,1,1.91-4.81c1.27-1.14,3.18-1.7,5.72-1.7s4.47.56,5.77,1.7a6,6,0,0,1,1.95,4.81v10.23H260.05v8.37c0,2.48,1.47,3.73,4.42,3.73S268.89,141.62,268.89,139.14Zm-8.84-18.6V128h8.84v-7.44c0-2.48-1.48-3.72-4.42-3.72S260.05,118.06,260.05,120.54Z"/><path d="M292.42,139.14v-2.55h3.26v2.55a6.12,6.12,0,0,1-1.91,4.82q-1.9,1.69-5.72,1.7a8.6,8.6,0,0,1-5.77-1.7,6,6,0,0,1-1.95-4.82v-18.6a6.07,6.07,0,0,1,1.91-4.81c1.27-1.14,3.17-1.7,5.72-1.7s4.46.56,5.76,1.7a6,6,0,0,1,2,4.81V125h-3.26v-4.42q0-3.72-4.42-3.72t-4.41,3.72v18.6c0,2.48,1.47,3.73,4.41,3.73S292.42,141.62,292.42,139.14Z"/><path d="M307.35,145H304.1V114.73h3.25v13.48h9.17V114.73h3.25V145h-3.25V131h-9.17Z"/><path d="M332.61,145h-3.26V114.73h2.53l0,3A6.9,6.9,0,0,1,338.1,114q6.82,0,6.83,6.51V145h-3.25V120.54a4.39,4.39,0,0,0-.77-2.75,3.4,3.4,0,0,0-2.81-1,5.48,5.48,0,0,0-3.77,1.58,4.35,4.35,0,0,0-1.72,3.07Z"/><path d="M369.17,120.54v18.6a6,6,0,0,1-2,4.82q-2,1.69-5.91,1.7t-5.93-1.7a6,6,0,0,1-2-4.82v-18.6a6,6,0,0,1,2-4.81c1.32-1.14,3.28-1.7,5.9-1.7s4.6.56,5.94,1.7A6,6,0,0,1,369.17,120.54Zm-3.26,18.6v-18.6q0-3.72-4.65-3.72t-4.65,3.72v18.6c0,2.48,1.55,3.73,4.65,3.73S365.91,141.62,365.91,139.14Z"/><path d="M378.05,145V114.73h3.25v27.44h8.52V145Z"/><path d="M410.79,120.54v18.6a6,6,0,0,1-2,4.82q-2,1.69-5.91,1.7T397,144a6,6,0,0,1-2-4.82v-18.6a6,6,0,0,1,2-4.81c1.31-1.14,3.28-1.7,5.9-1.7s4.6.56,5.93,1.7A5.93,5.93,0,0,1,410.79,120.54Zm-3.25,18.6v-18.6q0-3.72-4.65-3.72c-3.1,0-4.66,1.24-4.66,3.72v18.6c0,2.48,1.56,3.73,4.66,3.73S407.54,141.62,407.54,139.14Z"/><path d="M425.86,132.4v-2.79h8.47v9.53a6.12,6.12,0,0,1-1.91,4.82q-1.91,1.69-5.72,1.7a8.58,8.58,0,0,1-5.77-1.7,6,6,0,0,1-1.95-4.82v-18.6a6.07,6.07,0,0,1,1.91-4.81c1.27-1.14,3.17-1.7,5.72-1.7s4.46.56,5.76,1.7a6,6,0,0,1,2,4.81v2.56h-3.26v-2.56q0-3.72-4.42-3.72c-2.94,0-4.42,1.24-4.42,3.72v18.6c0,2.48,1.48,3.73,4.42,3.73s4.42-1.25,4.42-3.73V132.4Z"/><path d="M446.47,145h-3.26V114.73h3.26Z"/><path d="M467.44,139.14v-2.55h3.26v2.55a6.12,6.12,0,0,1-1.91,4.82q-1.91,1.69-5.72,1.7a8.6,8.6,0,0,1-5.77-1.7,6,6,0,0,1-1.95-4.82v-18.6a6.1,6.1,0,0,1,1.91-4.81c1.27-1.14,3.17-1.7,5.72-1.7a8.55,8.55,0,0,1,5.77,1.7,6,6,0,0,1,1.95,4.81v10.23H458.61v8.37c0,2.48,1.47,3.73,4.41,3.73S467.44,141.62,467.44,139.14Zm-8.83-18.6V128h8.83v-7.44q0-3.72-4.42-3.72T458.61,120.54Z"/><path d="M494.37,139.14q0,6.53-7.86,6.52t-7.86-6.52v-3.95h3.26v4.14a3.15,3.15,0,0,0,1.16,2.6,6.78,6.78,0,0,0,6.89,0,3.07,3.07,0,0,0,1.16-2.53,7.73,7.73,0,0,0-.35-2.56,5.87,5.87,0,0,0-1.42-2l-8.19-8a8.3,8.3,0,0,1-2-2.82,9.52,9.52,0,0,1-.54-3.46,6.08,6.08,0,0,1,1.93-4.81c1.29-1.14,3.24-1.7,5.84-1.7q7.49,0,7.49,6.51v3.95h-3.26v-4.14a3.23,3.23,0,0,0-1.09-2.6,6.25,6.25,0,0,0-6.56,0,3.17,3.17,0,0,0-1.09,2.56,8.32,8.32,0,0,0,.32,2.56,5.06,5.06,0,0,0,1.45,1.95l8.32,8a9,9,0,0,1,1.86,2.86A10,10,0,0,1,494.37,139.14Z"/><path class="cls-1" d="M15.71,172.3V151.88h1.92V172.3Z"/><path class="cls-1" d="M31.12,162.89V161h9.61v1.92Z"/><path class="cls-1" d="M68.67,162.89V161h9.61v1.92Z"/><path class="cls-1" d="M99.39,172.3V151.88h1.92V172.3Z"/><path class="cls-1" d="M114.8,162.89V161h9.61v1.92Z"/><path class="cls-1" d="M130.43,162.89V161h9.62v1.92Z"/><path class="cls-1" d="M175.28,162.89V161h9.62v1.92Z"/><path class="cls-1" d="M191.4,172.3V151.88h1.92V172.3Z"/><path class="cls-1" d="M206.81,162.89V161h9.61v1.92Z"/><path class="cls-1" d="M222.44,162.89V161h9.61v1.92Z"/><path class="cls-1" d="M245.38,162.89V161H255v1.92Z"/><path class="cls-1" d="M261,162.89V161h9.62v1.92Z"/><path class="cls-1" d="M284,162.89V161h9.61v1.92Z"/><path class="cls-1" d="M300.07,172.3V151.88H302V172.3Z"/><path class="cls-1" d="M315.48,162.89V161h9.61v1.92Z"/><path class="cls-1" d="M331.11,162.89V161h9.61v1.92Z"/><path class="cls-1" d="M354.05,162.89V161h9.61v1.92Z"/><path class="cls-1" d="M384.29,162.89V161h9.61v1.92Z"/><path class="cls-1" d="M400.41,172.3V151.88h1.92V172.3Z"/><path class="cls-1" d="M415.82,162.89V161h9.61v1.92Z"/><path class="cls-1" d="M431.45,162.89V161h9.61v1.92Z"/><path class="cls-1" d="M476.3,162.89V161h9.61v1.92Z"/><path class="cls-1" d="M492.41,172.3V151.88h1.93V172.3Z"/><line class="cls-2" x1="113.59" y1="37.95" x2="99.55" y2="23.91"/><line class="cls-2" x1="113.59" y1="37.95" x2="99.55" y2="23.91"/></svg>