<svg id="Layer_1" data-name="Layer 1" xmlns="http://www.w3.org/2000/svg" viewBox="0 0 496.32 459.44"><defs><style>.cls-1{fill:#1e1e1e;}</style></defs><path class="cls-1" d="M57,258.81s24.24-20.21,24.24-74.15c0-45.55-25-67.22-25-67.22s17.39,17.9,17.51,67.83C73.89,242.71,57,258.81,57,258.81Z"/><path class="cls-1" d="M36.27,241.14S54.45,226,54.45,185.52c0-34.15-18.77-50.41-18.77-50.41s13,13.43,13.13,50.88C48.91,229.06,36.27,241.14,36.27,241.14Z"/><path class="cls-1" d="M14.77,227.88S28.4,216.52,28.4,186.17c0-25.62-14.07-37.81-14.07-37.81s9.78,10.08,9.84,38.16C24.25,218.83,14.77,227.88,14.77,227.88Z"/><g id="ELLIPSE"><path class="cls-1" d="M162.7,252.58a5.65,5.65,0,0,0,1.84,3.61,11.22,11.22,0,0,0,3.47,2.19,22.43,22.43,0,0,0,16.18,0,11.22,11.22,0,0,0,3.47-2.19,5.56,5.56,0,0,0,1.84-3.61,5.51,5.51,0,0,1-1.54,3.9,11.53,11.53,0,0,1-3.5,2.49,20.63,20.63,0,0,1-16.72,0,11.7,11.7,0,0,1-3.5-2.49A5.6,5.6,0,0,1,162.7,252.58Z"/></g><g id="ELLIPSE-2" data-name="ELLIPSE"><path class="cls-1" d="M164.38,260.78a5,5,0,0,0,1.62,3.15,10,10,0,0,0,3,1.89,19.71,19.71,0,0,0,14.13,0,10,10,0,0,0,3-1.89,4.92,4.92,0,0,0,1.63-3.15,4.87,4.87,0,0,1-1.33,3.44,10.34,10.34,0,0,1-3.07,2.2,18,18,0,0,1-14.66,0,10.28,10.28,0,0,1-3.06-2.21A4.83,4.83,0,0,1,164.38,260.78Z"/></g><g id="ELLIPSE-3" data-name="ELLIPSE"><path class="cls-1" d="M164.38,269a4.91,4.91,0,0,0,1.62,3.14,9.8,9.8,0,0,0,3,1.9,18.1,18.1,0,0,0,7.06,1.31,18.34,18.34,0,0,0,7.07-1.31,9.87,9.87,0,0,0,3-1.9,4.87,4.87,0,0,0,1.63-3.14,4.85,4.85,0,0,1-1.33,3.43,10.19,10.19,0,0,1-3.07,2.21,18.05,18.05,0,0,1-14.66,0,10.07,10.07,0,0,1-3.06-2.2A4.85,4.85,0,0,1,164.38,269Z"/></g><g id="ELLIPSE-4" data-name="ELLIPSE"><path class="cls-1" d="M165.38,263.52a5.31,5.31,0,0,0-.82,2,3.82,3.82,0,0,0,.29,2.09,6.57,6.57,0,0,0,2.91,3,17,17,0,0,0,8.34,2,16.7,16.7,0,0,0,8.34-2,6.52,6.52,0,0,0,2.92-3,3.92,3.92,0,0,0,.29-2.09,5.1,5.1,0,0,0-.82-2,4.26,4.26,0,0,1,.92,4.25,7,7,0,0,1-3,3.41,16.74,16.74,0,0,1-8.68,2.27,17.08,17.08,0,0,1-8.68-2.26,7.08,7.08,0,0,1-3-3.43,4.18,4.18,0,0,1-.12-2.27A5,5,0,0,1,165.38,263.52Z"/></g><g id="LINE"><path class="cls-1" d="M290.22,214.25a15.09,15.09,0,0,1,0,7.07,13,13,0,0,1-.43-3.54A13.33,13.33,0,0,1,290.22,214.25Z"/></g><g id="LINE-2" data-name="LINE"><path class="cls-1" d="M355.33,89.18c4.87,2.61,9.69,5.3,14.5,8l14.38,8.19,14.29,8.36c4.74,2.82,9.48,5.64,14.17,8.56-4.87-2.61-9.69-5.3-14.5-8l-14.38-8.19L369.5,97.74C364.76,94.92,360,92.09,355.33,89.18Z"/></g><g id="LINE-3" data-name="LINE"><polygon class="cls-1" points="188.92 185.26 209.62 173.07 230.36 160.96 271.91 136.86 313.57 112.92 334.43 101.01 355.33 89.18 334.63 101.37 313.89 113.49 272.34 137.59 230.69 161.53 209.82 173.43 188.92 185.26"/></g><g id="LINE-4" data-name="LINE"><path class="cls-1" d="M243.74,219.81c-4.64-2.47-9.23-5-13.82-7.6l-13.7-7.8-13.61-8c-4.52-2.68-9-5.38-13.5-8.17,4.64,2.48,9.24,5,13.82,7.61l13.71,7.8,13.61,8C234.77,214.34,239.28,217,243.74,219.81Z"/></g><g id="LINE-5" data-name="LINE"><polygon class="cls-1" points="412.67 122.29 391.65 134.66 370.6 146.95 328.42 171.42 286.14 195.72 264.96 207.8 243.74 219.81 264.75 207.44 285.81 195.15 327.99 170.68 370.27 146.39 391.45 134.3 412.67 122.29"/></g><g id="ELLIPSE-5" data-name="ELLIPSE"><path class="cls-1" d="M192.69,279.15a3.72,3.72,0,0,0,2.44-1.43,5.3,5.3,0,0,0,.94-2.65,13,13,0,0,0-.91-5.65,19.56,19.56,0,0,0-2.87-5.07,13.48,13.48,0,0,0-4.46-3.78,11.08,11.08,0,0,1,5,3.36,16.61,16.61,0,0,1,3.15,5.19,11.77,11.77,0,0,1,.76,6.05,5.74,5.74,0,0,1-1.26,2.82A3.7,3.7,0,0,1,192.69,279.15Z"/></g><g id="LINE-6" data-name="LINE"><path class="cls-1" d="M277.17,296.16c-.17-3.08-.25-6.16-.32-9.24s-.07-6.15-.1-9.23,0-6.16.1-9.23.15-6.16.32-9.24c.18,3.08.26,6.16.33,9.24s.06,6.15.1,9.23,0,6.15-.1,9.23S277.35,293.08,277.17,296.16Z"/></g><g id="LINE-7" data-name="LINE"><path class="cls-1" d="M472.63,146.37c.18,3.18.26,6.37.33,9.55s.06,6.36.1,9.54,0,6.36-.1,9.54-.15,6.36-.33,9.54c-.17-3.18-.26-6.36-.32-9.54s-.07-6.36-.1-9.54,0-6.36.1-9.54S472.46,149.55,472.63,146.37Z"/></g><g id="LINE-8" data-name="LINE"><path class="cls-1" d="M272.43,259.22c.18,3.08.26,6.16.33,9.24s.06,6.15.1,9.23,0,6.15-.1,9.23-.15,6.16-.33,9.24c-.17-3.08-.25-6.16-.32-9.24s-.07-6.15-.1-9.23,0-6.16.1-9.23S272.26,262.3,272.43,259.22Z"/></g><g id="LINE-9" data-name="LINE"><path class="cls-1" d="M151.6,226.53c-.17-3.09-.25-6.18-.32-9.27s-.06-6.17-.1-9.26,0-6.18.1-9.27.15-6.18.32-9.27c.18,3.09.26,6.18.33,9.27s.07,6.18.1,9.27,0,6.17-.1,9.26S151.78,223.44,151.6,226.53Z"/></g><g id="ELLIPSE-6" data-name="ELLIPSE"><path class="cls-1" d="M214.85,263.05a27.34,27.34,0,0,0-1.45-3.88,25.89,25.89,0,0,0-2-3.63,31.53,31.53,0,0,0-2.42-3.31,24.56,24.56,0,0,0-2.9-2.87,17.54,17.54,0,0,0-3.38-2.24,9.85,9.85,0,0,0-3.84-1,5.39,5.39,0,0,0-3.7,1.18,6.68,6.68,0,0,0-1.35,1.5,11.41,11.41,0,0,0-.88,1.87,7,7,0,0,1,2-3.68,5.87,5.87,0,0,1,4-1.52,7.34,7.34,0,0,1,2.14.26c.34.11.69.19,1,.31l1,.41a17.65,17.65,0,0,1,3.59,2.29,24.55,24.55,0,0,1,5.34,6.5A23.33,23.33,0,0,1,214.85,263.05Z"/></g><g id="LINE-10" data-name="LINE"><path class="cls-1" d="M472.63,146.37a7,7,0,0,1-.14-1.36,6.31,6.31,0,0,1,.14-1.37,6.72,6.72,0,0,1,0,2.73Z"/></g><g id="LINE-11" data-name="LINE"><polygon class="cls-1" points="277.17 259.22 301.5 244.94 325.88 230.73 374.69 202.43 423.6 174.3 448.1 160.3 472.63 146.37 448.3 160.66 423.93 174.87 375.12 203.17 326.2 231.29 301.71 245.3 277.17 259.22"/></g><g id="LINE-13" data-name="LINE"><path class="cls-1" d="M469.28,141.7a13.47,13.47,0,0,1,1.75.85,12.2,12.2,0,0,1,1.6,1.09,11.68,11.68,0,0,1-1.74-.85A11.39,11.39,0,0,1,469.28,141.7Z"/></g><g id="LINE-14" data-name="LINE"><path class="cls-1" d="M151.6,186.73a6.29,6.29,0,0,1,0,2.73,6.72,6.72,0,0,1,0-2.73Z"/></g><g id="LINE-15" data-name="LINE"><path class="cls-1" d="M151.6,186.73a11.39,11.39,0,0,1,1.61-1.09,12.29,12.29,0,0,1,1.75-.85,11.39,11.39,0,0,1-1.61,1.09A12.29,12.29,0,0,1,151.6,186.73Z"/></g><g id="LINE-17" data-name="LINE"><path class="cls-1" d="M151.6,189.46a49.65,49.65,0,0,1,11.21,6.47,49.65,49.65,0,0,1-11.21-6.47Z"/></g><g id="LINE-18" data-name="LINE"><polygon class="cls-1" points="189.5 211.34 199.97 217.15 210.39 223.03 231.18 234.91 251.86 246.97 262.17 253.06 272.43 259.22 261.96 253.42 251.54 247.53 230.75 235.65 210.07 223.59 199.76 217.5 189.5 211.34"/></g><g id="LINE-19" data-name="LINE"><path class="cls-1" d="M155,185.93a21.55,21.55,0,0,1-1.58,1.86,18.79,18.79,0,0,1-1.78,1.67,20.14,20.14,0,0,1,1.58-1.86A17.58,17.58,0,0,1,155,185.93Z"/></g><g id="LINE-20" data-name="LINE"><path class="cls-1" d="M155,185.93a1.16,1.16,0,0,1,0-1.14,1.23,1.23,0,0,1,0,1.14Z"/></g><g id="LINE-21" data-name="LINE"><path class="cls-1" d="M155,184.79a31,31,0,0,1,8.85-5.11,26.7,26.7,0,0,1-4.22,2.92A27.26,27.26,0,0,1,155,184.79Z"/></g><g id="LINE-22" data-name="LINE"><polygon class="cls-1" points="186.13 166.79 206.32 154.9 226.55 143.08 267.08 119.57 307.71 96.22 328.06 84.61 348.45 73.08 328.27 84.97 308.04 96.79 267.5 120.3 226.87 143.65 206.52 155.26 186.13 166.79"/></g><g id="LINE-23" data-name="LINE"><path class="cls-1" d="M348.45,73.08a3.38,3.38,0,0,1,1-.15,3.28,3.28,0,0,1,1,.15,3.63,3.63,0,0,1-1,.14A3.74,3.74,0,0,1,348.45,73.08Z"/></g><g id="LINE-24" data-name="LINE"><polygon class="cls-1" points="350.42 73.08 365.38 81.48 380.29 89.95 410.06 107.02 439.73 124.26 454.53 132.95 469.28 141.7 454.32 133.31 439.4 124.83 409.64 107.76 379.97 90.52 365.17 81.83 350.42 73.08"/></g><g id="LINE-25" data-name="LINE"><polygon class="cls-1" points="469.28 142.84 445.2 156.98 421.07 171.05 372.75 199.06 324.32 226.91 300.08 240.77 275.79 254.55 299.87 240.41 324 226.34 372.32 198.33 420.75 170.48 444.99 156.62 469.28 142.84"/></g><g id="LINE-26" data-name="LINE"><polygon class="cls-1" points="273.82 254.55 263.18 248.65 252.58 242.66 231.44 230.57 210.41 218.32 199.93 212.13 189.49 205.86 200.13 211.77 210.74 217.75 231.87 229.84 252.9 242.1 263.38 248.29 273.82 254.55"/></g><g id="LINE-27" data-name="LINE"><path class="cls-1" d="M163,190.56a22.57,22.57,0,0,1-4.23-1.95,22,22,0,0,1-3.79-2.68,25.16,25.16,0,0,1,8,4.63Z"/></g><g id="LINE-28" data-name="LINE"><path class="cls-1" d="M397.81,175.13c-1.66-.76-3.29-1.6-4.9-2.46s-3.2-1.74-4.79-2.65c-3.15-1.83-6.27-3.72-9.26-5.84,3.33,1.54,6.52,3.29,9.69,5.11,1.57.92,3.15,1.84,4.69,2.82S396.32,174.06,397.81,175.13Z"/></g><g id="LINE-29" data-name="LINE"><path class="cls-1" d="M426.24,158.71c-2.28,1.52-4.61,3-6.94,4.39s-4.71,2.79-7.06,4.19-4.75,2.71-7.16,4-4.81,2.6-7.27,3.82c2.28-1.52,4.61-3,6.95-4.39s4.7-2.79,7.06-4.19,4.75-2.71,7.15-4S423.79,159.93,426.24,158.71Z"/></g><g id="LINE-30" data-name="LINE"><path class="cls-1" d="M350.43,202.48c-1.67-.76-3.29-1.6-4.9-2.45s-3.21-1.75-4.79-2.65c-3.15-1.83-6.27-3.72-9.27-5.84,3.33,1.53,6.53,3.29,9.69,5.1,1.58.93,3.15,1.85,4.69,2.83S348.94,201.42,350.43,202.48Z"/></g><g id="LINE-31" data-name="LINE"><path class="cls-1" d="M378.86,186.07c-2.28,1.52-4.61,3-6.95,4.39s-4.7,2.79-7.05,4.18-4.76,2.71-7.16,4-4.81,2.61-7.27,3.82c2.28-1.52,4.61-3,6.94-4.38s4.71-2.79,7.06-4.19,4.75-2.71,7.16-4S376.4,187.29,378.86,186.07Z"/></g><g id="LINE-32" data-name="LINE"><path class="cls-1" d="M303,229.84a56.9,56.9,0,0,1-6.62-3.33,58.54,58.54,0,0,1-6.2-4.07,56.9,56.9,0,0,1,6.62,3.33A58.54,58.54,0,0,1,303,229.84Z"/></g><g id="LINE-33" data-name="LINE"><path class="cls-1" d="M331.47,213.43c-2.28,1.52-4.6,3-6.94,4.38s-4.71,2.79-7.06,4.19-4.75,2.71-7.15,4-4.82,2.61-7.28,3.82c2.29-1.52,4.61-3,6.95-4.39s4.7-2.79,7.06-4.18,4.75-2.71,7.15-4S329,214.64,331.47,213.43Z"/></g><g id="LINE-34" data-name="LINE"><polygon class="cls-1" points="481.99 187.34 482.2 197.43 482.32 207.52 482.42 227.69 482.32 247.87 482.2 257.96 481.99 268.05 481.78 257.96 481.66 247.87 481.57 227.69 481.67 207.52 481.78 197.43 481.99 187.34"/></g><g id="LINE-35" data-name="LINE"><polygon class="cls-1" points="277.05 386.37 276.85 376.28 276.73 366.19 276.63 346.01 276.73 325.84 276.85 315.75 277.05 305.66 277.26 315.75 277.38 325.84 277.48 346.01 277.38 366.19 277.26 376.28 277.05 386.37"/></g><g id="LINE-36" data-name="LINE"><polygon class="cls-1" points="139.64 311.13 139.43 301.05 139.31 290.96 139.22 270.78 139.31 250.61 139.43 240.52 139.64 230.43 139.85 240.52 139.97 250.61 140.06 270.78 139.97 290.96 139.85 301.05 139.64 311.13"/></g><g id="LINE-37" data-name="LINE"><polygon class="cls-1" points="269.95 305.66 270.15 315.75 270.27 325.84 270.37 346.01 270.27 366.19 270.15 376.28 269.95 386.37 269.74 376.28 269.62 366.19 269.52 346.01 269.62 325.84 269.74 315.75 269.95 305.66"/></g><g id="ELLIPSE-7" data-name="ELLIPSE"><path class="cls-1" d="M204.47,277.19a14.24,14.24,0,0,0,1.84-2.22c.53-.77.93-1.62,1.49-2.51a4.74,4.74,0,0,1-.78,3A3.83,3.83,0,0,1,204.47,277.19Z"/></g><g id="LINE-38" data-name="LINE"><path class="cls-1" d="M139.64,226.33a15.08,15.08,0,0,1,0,4.1,15.08,15.08,0,0,1,0-4.1Z"/></g><g id="LINE-39" data-name="LINE"><path class="cls-1" d="M270,305.66c1.18-.11,2.37-.12,3.55-.14s2.37,0,3.55.14c-1.18.12-2.36.13-3.55.14S271.13,305.78,270,305.66Z"/></g><g id="LINE-40" data-name="LINE"><path class="cls-1" d="M270,305.66c.23-1.2.57-2.37.9-3.54s.72-2.33,1.18-3.46c-.24,1.2-.58,2.37-.91,3.54S270.41,304.53,270,305.66Z"/></g><g id="LINE-41" data-name="LINE"><path class="cls-1" d="M209.13,270.55c5.16,2.78,10.27,5.63,15.37,8.5l15.25,8.69,15.16,8.86c5,3,10.06,6,15,9.06-5.16-2.77-10.27-5.63-15.37-8.49l-15.25-8.7-15.16-8.86C219.14,276.63,214.11,273.63,209.13,270.55Z"/></g><g id="LINE-42" data-name="LINE"><path class="cls-1" d="M139.64,230.43c2,1,4,2,5.93,3s3.87,2.16,5.81,3.24,3.83,2.24,5.72,3.41,3.77,2.35,5.6,3.61c-2-1-4-2-5.93-3s-3.87-2.17-5.81-3.25-3.83-2.24-5.72-3.41S141.47,231.69,139.64,230.43Z"/></g><g id="LINE-43" data-name="LINE"><path class="cls-1" d="M144.67,225.12c-.76,1-1.59,1.86-2.41,2.75s-1.7,1.76-2.62,2.56c.75-1,1.58-1.86,2.41-2.75S143.74,225.93,144.67,225.12Z"/></g><g id="LINE-44" data-name="LINE"><path class="cls-1" d="M139.64,226.33a27.44,27.44,0,0,1,2.44-1.58c.85-.47,1.69-.94,2.59-1.33a27.59,27.59,0,0,1-2.45,1.58A28.5,28.5,0,0,1,139.64,226.33Z"/></g><g id="LINE-45" data-name="LINE"><path class="cls-1" d="M275,298.66a7.79,7.79,0,0,1-2.94,0,7.79,7.79,0,0,1,2.94,0Z"/></g><g id="LINE-46" data-name="LINE"><path class="cls-1" d="M272,298.66c-5.16-2.78-10.28-5.64-15.38-8.51l-15.28-8.7-15.17-8.87c-5-3-10.07-6-15-9.07,5.16,2.77,10.27,5.63,15.38,8.5l15.27,8.7L257,289.59C262,292.58,267,295.58,272,298.66Z"/></g><g id="LINE-50" data-name="LINE"><path class="cls-1" d="M162.7,235.54c-1.59-.72-3.13-1.52-4.67-2.33s-3.05-1.65-4.56-2.51c-3-1.75-6-3.55-8.8-5.58,3.17,1.45,6.21,3.12,9.23,4.84,1.49.88,3,1.76,4.45,2.69S161.29,234.52,162.7,235.54Z"/></g><g id="LINE-51" data-name="LINE"><path class="cls-1" d="M144.67,225.12a2.5,2.5,0,0,1-.15-.85,2.58,2.58,0,0,1,.15-.85,2.85,2.85,0,0,1,.14.85A2.75,2.75,0,0,1,144.67,225.12Z"/></g><g id="LINE-52" data-name="LINE"><path class="cls-1" d="M144.67,223.42a17.32,17.32,0,0,1,3.25-2.37,17.11,17.11,0,0,1,3.68-1.63,16.58,16.58,0,0,1-3.25,2.37A17.11,17.11,0,0,1,144.67,223.42Z"/></g><g id="LINE-53" data-name="LINE"><polygon class="cls-1" points="277.05 305.66 302.57 290.69 328.13 275.8 379.31 246.13 430.59 216.64 456.27 201.95 481.99 187.34 456.48 202.31 430.92 217.21 379.74 246.87 328.45 276.36 302.77 291.05 277.05 305.66"/></g><g id="LINE-54" data-name="LINE"><path class="cls-1" d="M275,298.66c.46,1.13.82,2.3,1.18,3.46s.67,2.34.9,3.54c-.46-1.13-.81-2.3-1.17-3.46S275.21,299.86,275,298.66Z"/></g><g id="LINE-55" data-name="LINE"><polygon class="cls-1" points="476.96 182.04 451.82 196.79 426.63 211.47 376.18 240.71 325.63 269.79 300.33 284.26 274.97 298.66 300.12 283.9 325.31 269.22 375.76 239.98 426.3 210.91 451.61 196.44 476.96 182.04"/></g><g id="LINE-56" data-name="LINE"><path class="cls-1" d="M482,187.34a15.08,15.08,0,0,1,0-4.1,15.08,15.08,0,0,1,0,4.1Z"/></g><g id="LINE-57" data-name="LINE"><path class="cls-1" d="M472.63,178.24c1.62.73,3.18,1.55,4.75,2.37s3.11,1.69,4.61,2.63c-1.61-.73-3.18-1.56-4.75-2.38S474.14,179.17,472.63,178.24Z"/></g><g id="LINE-58" data-name="LINE"><polygon class="cls-1" points="139.64 311.13 156.03 320.36 172.38 329.66 205.01 348.38 237.53 367.27 253.76 376.78 269.95 386.37 253.55 377.14 237.21 367.84 204.58 349.12 172.05 330.22 155.82 320.72 139.64 311.13"/></g><g id="LINE-59" data-name="LINE"><path class="cls-1" d="M270,386.37a13.48,13.48,0,0,1,3.55-.43,13,13,0,0,1,3.55.43,15.21,15.21,0,0,1-7.1,0Z"/></g><g id="LINE-60" data-name="LINE"><polygon class="cls-1" points="277.05 386.37 302.57 371.4 328.13 356.5 379.31 326.84 430.59 297.34 456.27 282.66 481.99 268.05 456.48 283.02 430.92 297.91 379.74 327.57 328.45 357.07 302.77 371.75 277.05 386.37"/></g><g id="LINE-61" data-name="LINE"><path class="cls-1" d="M173.73,295c-1.27-.53-2.49-1.15-3.71-1.77s-2.42-1.29-3.61-2a68.12,68.12,0,0,1-6.89-4.47,70,70,0,0,1,7.32,3.74c1.18.69,2.36,1.38,3.5,2.14S172.64,294.14,173.73,295Z"/></g><g id="LINE-62" data-name="LINE"><path class="cls-1" d="M192.69,284c-.18-1.37-.26-2.74-.33-4.11s-.09-2.73-.1-4.1a68.43,68.43,0,0,1,.43-8.21,70.55,70.55,0,0,1,.42,8.21c0,1.37,0,2.73-.1,4.1S192.86,282.67,192.69,284Z"/></g><g id="LINE-63" data-name="LINE"><path class="cls-1" d="M192.69,284c-1.49,1.06-3,2-4.58,3s-3.11,1.9-4.69,2.83c-3.16,1.81-6.36,3.57-9.69,5.1,3-2.12,6.11-4,9.27-5.84,1.58-.9,3.17-1.81,4.79-2.65S191,284.8,192.69,284Z"/></g><g id="LINE-64" data-name="LINE"><path class="cls-1" d="M173.73,278.56c.18,1.37.26,2.74.33,4.11s.09,2.73.1,4.1a68.43,68.43,0,0,1-.43,8.21,70.55,70.55,0,0,1-.42-8.21c0-1.37,0-2.73.1-4.1S173.56,279.93,173.73,278.56Z"/></g><g id="LINE-65" data-name="LINE"><path class="cls-1" d="M192.69,267.62a10.77,10.77,0,0,1-5.21-3,10.77,10.77,0,0,1,5.21,3Z"/></g><g id="LINE-66" data-name="LINE"><path class="cls-1" d="M192.69,267.62a10.9,10.9,0,0,1-5.21,3,9.45,9.45,0,0,1,2.39-1.87A9.71,9.71,0,0,1,192.69,267.62Z"/></g><g id="LINE-67" data-name="LINE"><path class="cls-1" d="M178.94,275.56a9.68,9.68,0,0,1-2.39,1.87,9.42,9.42,0,0,1-2.82,1.13,10.77,10.77,0,0,1,5.21-3Z"/></g><g id="LINE-68" data-name="LINE"><path class="cls-1" d="M159.52,270.36c1.27.53,2.5,1.14,3.71,1.77s2.42,1.29,3.61,2a71.76,71.76,0,0,1,6.89,4.47,69,69,0,0,1-7.32-3.73c-1.18-.69-2.36-1.39-3.5-2.14S160.61,271.19,159.52,270.36Z"/></g><g id="LINE-69" data-name="LINE"><path class="cls-1" d="M164.38,267.55a8.66,8.66,0,0,1-2.22,1.77,8.47,8.47,0,0,1-2.64,1,9.46,9.46,0,0,1,4.86-2.81Z"/></g><g id="LINE-70" data-name="LINE"><path class="cls-1" d="M159.52,286.77c-.18-1.37-.26-2.73-.33-4.1s-.09-2.74-.1-4.11a70.39,70.39,0,0,1,.43-8.2,70.38,70.38,0,0,1,.42,8.2c0,1.37,0,2.74-.1,4.11S159.69,285.4,159.52,286.77Z"/></g><g id="LINE-71" data-name="LINE"><path class="cls-1" d="M203.94,277.94a30.77,30.77,0,0,1-4.53,3.1,30,30,0,0,1-4.95,2.37,35.77,35.77,0,0,1,9.48-5.47Z"/></g><g id="LINE-73" data-name="LINE"><path class="cls-1" d="M209.51,270.22a37.6,37.6,0,0,1-9.72,5.61,37.6,37.6,0,0,1,9.72-5.61Z"/></g><g id="LINE-74" data-name="LINE"><path class="cls-1" d="M200.39,246.36a41.9,41.9,0,0,1-5.23,3.51,39.55,39.55,0,0,1-5.66,2.77,41.9,41.9,0,0,1,5.23-3.51A42.37,42.37,0,0,1,200.39,246.36Z"/></g><g id="LINE-76" data-name="LINE"><path class="cls-1" d="M210.15,253c-1.22.91-2.48,1.73-3.76,2.55s-2.57,1.58-3.87,2.35a84,84,0,0,1-8.06,4.16,85.32,85.32,0,0,1,7.64-4.9c1.31-.74,2.62-1.49,4-2.18S208.76,253.63,210.15,253Z"/></g><g id="LINE-77" data-name="LINE"><path class="cls-1" d="M194.46,262.09a58.07,58.07,0,0,1,3.07,6.72,56.3,56.3,0,0,1,2.26,7,56.37,56.37,0,0,1-3.06-6.72A58.05,58.05,0,0,1,194.46,262.09Z"/></g><g id="LINE-78" data-name="LINE"><path class="cls-1" d="M199.79,275.83a23,23,0,0,1-2.31,4,22.46,22.46,0,0,1-3,3.54,25.75,25.75,0,0,1,5.33-7.58Z"/></g><g id="LINE-79" data-name="LINE"><path class="cls-1" d="M194.46,283.41a1.43,1.43,0,0,1-1.1-.14,1.39,1.39,0,0,1-.67-.88,1.43,1.43,0,0,1,1.77,1Z"/></g><g id="LINE-80" data-name="LINE"><path class="cls-1" d="M187.83,258.26a15.51,15.51,0,0,1,3.53,1.55,15.19,15.19,0,0,1,3.1,2.28,17.51,17.51,0,0,1-6.63-3.83Z"/></g><g id="SPLINE"><path class="cls-1" d="M162.7,252.58l-.21-25.53c-.06-8.51,0-17,0-25.53A167.47,167.47,0,0,1,163.9,176c.3-2.11.67-4.22,1.11-6.31l.7-3.11L166,165l.43-1.58a13.45,13.45,0,0,1,3.66-5.4,12.09,12.09,0,0,1,2.75-1.83,7.89,7.89,0,0,1,3.24-.83,10,10,0,0,1,6,2.66,12.76,12.76,0,0,1,3.65,5.4,28.17,28.17,0,0,1,.75,3.15c.22,1,.48,2.06.69,3.11.38,2.1.83,4.19,1.12,6.31a180,180,0,0,1,1.49,25.51l-.09,25.53-.21,25.53-.36-51.05a187.46,187.46,0,0,0-1.6-25.41c-.29-2.1-.74-4.17-1.13-6.25-.21-1-.46-2.07-.7-3.12a26.62,26.62,0,0,0-.73-3.05,12,12,0,0,0-3.43-5,9.29,9.29,0,0,0-5.45-2.43,9.11,9.11,0,0,0-5.44,2.43,12.58,12.58,0,0,0-3.44,5l-.41,1.49-.32,1.56-.71,3.12q-.66,3.1-1.12,6.25a178.1,178.1,0,0,0-1.55,25.41Z"/></g><g id="LINE-81" data-name="LINE"><path class="cls-1" d="M290.71,213.4c1.73-1.2,3.5-2.33,5.29-3.43s3.6-2.16,5.4-3.24,3.65-2.07,5.5-3.06,3.72-2,5.62-2.87c-1.73,1.21-3.5,2.33-5.29,3.43s-3.6,2.16-5.4,3.24-3.65,2.07-5.51,3.06S292.61,212.5,290.71,213.4Z"/></g><g id="LINE-82" data-name="LINE"><path class="cls-1" d="M312.52,200.8c1.61.73,3.17,1.54,4.73,2.36s3.09,1.68,4.61,2.55c3,1.76,6.05,3.59,8.92,5.64-3.21-1.47-6.29-3.16-9.34-4.91-1.52-.89-3-1.77-4.52-2.72S314,201.83,312.52,200.8Z"/></g><g id="LINE-83" data-name="LINE"><path class="cls-1" d="M359.91,172.08c1.6.72,3.17,1.53,4.72,2.35s3.09,1.68,4.62,2.55c3,1.77,6,3.59,8.92,5.64-3.22-1.47-6.3-3.16-9.35-4.9-1.51-.89-3-1.78-4.51-2.72S361.34,173.11,359.91,172.08Z"/></g><g id="LINE-84" data-name="LINE"><path class="cls-1" d="M332.17,188.09c2.22-1.48,4.49-2.89,6.77-4.28s4.59-2.73,6.88-4.09,4.64-2.65,7-3.92,4.7-2.54,7.1-3.72c-2.23,1.49-4.5,2.89-6.78,4.28s-4.59,2.73-6.88,4.09-4.64,2.65-7,3.92S334.57,186.91,332.17,188.09Z"/></g><g id="LINE-85" data-name="LINE"><path class="cls-1" d="M413.21,149.51a52,52,0,0,1,6.38,3.19,52.85,52.85,0,0,1,6,3.93,52,52,0,0,1-6.38-3.19A52.85,52.85,0,0,1,413.21,149.51Z"/></g><g id="LINE-86" data-name="LINE"><path class="cls-1" d="M379.55,162.1c1.73-1.2,3.51-2.32,5.29-3.43s3.61-2.15,5.41-3.23,3.65-2.08,5.5-3.07,3.71-2,5.62-2.86c-1.73,1.2-3.51,2.32-5.29,3.43s-3.61,2.15-5.41,3.23-3.65,2.08-5.5,3.07S381.46,161.2,379.55,162.1Z"/></g><path class="cls-1" d="M401.37,149.51a41,41,0,0,1,11.84,0,35.73,35.73,0,0,1-5.92.42A36.84,36.84,0,0,1,401.37,149.51Z"/><path class="cls-1" d="M272,298.66a7.79,7.79,0,0,1,2.94,0,7.79,7.79,0,0,1-2.94,0Z"/><path class="cls-1" d="M273.82,254.55a3.74,3.74,0,0,1,1-.14,3.63,3.63,0,0,1,1,.14,3,3,0,0,1-1,.14A3.06,3.06,0,0,1,273.82,254.55Z"/><path class="cls-1" d="M272.43,259.22a20.13,20.13,0,0,1,4.74,0,20.13,20.13,0,0,1-4.74,0Z"/><path class="cls-1" d="M275.78,254.55a17.56,17.56,0,0,1,.83,2.3,19,19,0,0,1,.56,2.37,20.87,20.87,0,0,1-.83-2.29A21.11,21.11,0,0,1,275.78,254.55Z"/><path class="cls-1" d="M273.82,254.55a19.14,19.14,0,0,1-.56,2.38,17.42,17.42,0,0,1-.83,2.29,21.36,21.36,0,0,1,1.39-4.67Z"/><path class="cls-1" d="M229.45,194.16l-22.38-5.29,2.28-1.33,11.05,2.72c2.75.68,5.48,1.39,7.55,2l.05,0c-1.57-.95-3.23-2.18-5-3.52l-6.86-5.11,2.2-1.29,11.06,2.63c2.61.62,5.21,1.26,7.38,1.92l0,0c-1.69-1-3.27-2.15-5-3.39l-6.93-4.95,2.1-1.23,13.6,10.12-2.16,1.33-11.59-2.75c-2.81-.67-4.9-1.2-6.92-1.83l0,0a52,52,0,0,1,4.61,3.21l7.22,5.46Z"/><path class="cls-1" d="M252.38,180.11l-1.84-.57-.06,0c.42.8.16,1.9-1.44,2.88a8.61,8.61,0,0,1-7.24.56c-3.18-1.29-2.48-3.45,1.87-6l-.27-.1a6.13,6.13,0,0,0-5.53.31,4.18,4.18,0,0,0-2,2.14l-2-.35a5.38,5.38,0,0,1,2.55-2.66,10.57,10.57,0,0,1,9.51-.41l4.9,1.93A30.2,30.2,0,0,0,254.2,179Zm-7-2.49c-2.27,1.31-4.33,3-1.78,4a4.82,4.82,0,0,0,4.21-.24c1.45-.89,1.28-1.89.48-2.53a2.62,2.62,0,0,0-.64-.37Z"/><path class="cls-1" d="M242.82,169.25l3.66,1.42L249.3,169l1.78.68-2.82,1.68,7,2.72c1.63.63,2.94.76,4,.09a4,4,0,0,0,1-.76l1.9.64a4.33,4.33,0,0,1-1.41,1.19,6.38,6.38,0,0,1-3.14.91,10.29,10.29,0,0,1-4.2-.87l-7.09-2.77-1.7,1-1.78-.7,1.7-1-3.07-1.19Z"/><path class="cls-1" d="M259.33,169.75a9.51,9.51,0,0,0,8.18-.48,5.72,5.72,0,0,0,2.21-2l2,.44a6.88,6.88,0,0,1-2.66,2.43c-3.25,2-7.88,2.18-11.84.67s-5.06-3.8-2-5.63c3.43-2,8-1.2,10.4-.32.48.18.81.35,1,.45Zm3.94-4c-1.48-.58-4.31-1.13-6.47.15-1.94,1.16-.62,2.5.86,3.21Z"/><path class="cls-1" d="M266.26,162.79c-1.52-.56-2.84-1-4.09-1.42l1.64-1,2.58.88.08-.05c-1.25-.9-1.21-2,0-2.7a3,3,0,0,1,.6-.29l2.19.8a4.54,4.54,0,0,0-.71.34c-1.31.78-1,1.79.51,2.59a8.31,8.31,0,0,0,1,.45l7,2.55-1.84,1.13Z"/><path class="cls-1" d="M268.67,152.81l1.79-1.05,15.91,5.6,5.82-3.55,2,.68-7.6,4.66Z"/><path class="cls-1" d="M290.67,150.84a9.42,9.42,0,0,0,7.78-.46,4.64,4.64,0,0,0,1.94-1.82l2,.39a5.79,5.79,0,0,1-2.34,2.2c-2.94,1.8-7.35,2-11.26.63s-5.17-3.4-2.37-5.05c3.1-1.84,7.57-1.11,9.92-.32.47.15.81.3,1,.39Zm3.42-3.63c-1.46-.51-4.22-1-6.17.16-1.77,1-.38,2.25,1.09,2.88Z"/><path class="cls-1" d="M293.4,142.85l9,1.27c1.48.2,2.79.4,4.05.63l.06,0c-.86-.48-1.66-1-2.52-1.56l-5.36-3.4,1.74-1,9.2,6.34-1.6,1-16.37-2.11Z"/><path class="cls-1" d="M309.41,139.53a9.36,9.36,0,0,0,7.54-.45,4,4,0,0,0,1.79-1.71l1.95.36a4.93,4.93,0,0,1-2.15,2.07c-2.76,1.69-7,1.86-10.92.61s-5.22-3.16-2.59-4.72c2.92-1.73,7.31-1.05,9.64-.32.47.15.8.28,1,.37Zm3.12-3.41c-1.45-.47-4.16-.92-6,.17-1.66,1-.24,2.1,1.23,2.7Z"/><path class="cls-1" d="M305.2,130.59l1.6-.93,18.51,5.74-1.59,1Z"/><path class="cls-1" d="M317,130.74c-1-.3-1.18-.77-.56-1.15a3.68,3.68,0,0,1,2.69-.12c.91.27,1.2.73.54,1.13A3.7,3.7,0,0,1,317,130.74Zm9.26,2.85c-1-.3-1.22-.79-.59-1.17a3.67,3.67,0,0,1,2.71-.13c.93.29,1.24.76.58,1.16A3.72,3.72,0,0,1,326.23,133.59Z"/><path class="cls-1" d="M326.59,121.08l-4.29,2.53,3.86,1.53a5,5,0,0,1,.81-.57,9.87,9.87,0,0,1,3.32-1.18,13.1,13.1,0,0,1,5.92.32c3.32,1,4.11,2.76,1.69,4.24a11.55,11.55,0,0,1-3.87,1.4l-1.38-.76A10.59,10.59,0,0,0,336,127.4c1.43-.87,1.23-2-1.05-2.7a8.78,8.78,0,0,0-7,.83,11,11,0,0,0-1.38,1l-7.28-2.84,5.38-3.16Z"/><path class="cls-1" d="M342.21,117.31c5.72,1.62,7.56,3.35,5.17,4.82-2.12,1.3-6.69,1.28-12.32-.33s-7.05-3.45-4.82-4.76S336.92,115.81,342.21,117.31Zm-5.63,3.61c4.38,1.27,7.77,1.46,9.1.65,1.5-.92-.53-2.13-4.82-3.36-4.1-1.16-7.46-1.52-9-.62C330.58,118.35,332,119.6,336.58,120.92Z"/><path class="cls-1" d="M354.58,117.71l-11.05-8.46.9-.52,11.06,8.43Zm-9.7-5c3.5,1,4.08,2.16,2.71,3s-4.14,1-7.51.08-4-2.14-2.56-3S341.74,111.82,344.88,112.69ZM341.15,115c2.09.62,4.21.77,5.11.23s-.22-1.26-2.41-1.87c-2-.56-4.05-.8-5.05-.22S339.07,114.46,341.15,115Zm17.36-4.51c3.53,1,4.17,2.13,2.86,2.93s-4.09,1-7.48.09-4.09-2.12-2.71-2.94S355.34,109.67,358.51,110.53Zm-3.62,2.32c2.13.6,4.27.74,5.13.21s-.28-1.24-2.5-1.84c-2-.55-4.07-.79-5-.21S352.79,112.27,354.89,112.85Z"/></svg>