<svg id="Layer_1" data-name="Layer 1" xmlns="http://www.w3.org/2000/svg" viewBox="0 0 496.32 459.44"><defs><style>.cls-1{fill:#fff;}</style></defs><path class="cls-1" d="M189.72,426.74S209.92,451,263.87,451c45.54,0,67.22-25,67.22-25s-17.91,17.39-67.84,17.51C205.82,443.59,189.72,426.74,189.72,426.74Z"/><path class="cls-1" d="M189.72,426.74A45.88,45.88,0,0,0,197,433l2,1.37,2,1.26c1.34.87,2.76,1.61,4.16,2.37a103.07,103.07,0,0,0,17.72,7.18,142.55,142.55,0,0,0,37.8,5.42c3.19.17,6.38-.06,9.57-.15A47.43,47.43,0,0,0,275,450l4.76-.5,4.71-.83,2.35-.41,2.32-.56c1.55-.39,3.11-.74,4.64-1.16l4.56-1.44a94.21,94.21,0,0,0,17.35-7.89,69.73,69.73,0,0,0,15-11.61l.71.68a41.55,41.55,0,0,1-7.77,5.21c-1.36.74-2.77,1.41-4.16,2.08s-2.83,1.27-4.29,1.8a104.24,104.24,0,0,1-17.81,5.16l-2.27.48-2.28.38-4.58.74-4.61.53c-1.53.16-3.06.38-4.61.45-6.15.48-12.33.68-18.5.6a204.93,204.93,0,0,1-36.84-3.31c-3.05-.52-6-1.33-9-2l-4.45-1.31c-1.48-.43-2.92-1-4.38-1.49s-2.86-1.15-4.3-1.72-2.8-1.29-4.17-2l-2-1.11c-.67-.39-1.32-.81-2-1.21A25.1,25.1,0,0,1,189.72,426.74Zm0,0a24.36,24.36,0,0,0,3.69,2.77c.66.39,1.31.8,2,1.18l2,1.09c1.38.68,2.78,1.33,4.2,1.93s2.84,1.18,4.31,1.65,2.9,1,4.38,1.43l4.45,1.25c3,.67,6,1.44,9,1.92a206.61,206.61,0,0,0,36.75,3.12q9.24.07,18.44-.68c1.54-.07,3.06-.3,4.59-.47l4.58-.55,4.55-.75,2.27-.39,2.25-.49a103.9,103.9,0,0,0,17.65-5.19c1.44-.53,2.82-1.21,4.23-1.81s2.76-1.32,4.09-2.07a40.48,40.48,0,0,0,7.54-5.08l.72.68A68.71,68.71,0,0,1,316.18,438a95.12,95.12,0,0,1-17.56,7.9l-4.6,1.43c-1.55.41-3.12.76-4.68,1.14l-2.34.56-2.37.41-4.75.8-4.79.49a48,48,0,0,1-4.8.35c-3.2.08-6.41.29-9.61.11a143.18,143.18,0,0,1-37.93-5.61,103.75,103.75,0,0,1-17.7-7.44c-1.4-.79-2.81-1.54-4.14-2.43l-2-1.29-1.95-1.4A46.59,46.59,0,0,1,189.72,426.74Z"/><path class="cls-1" d="M207.39,406s15.15,18.18,55.61,18.18c34.16,0,50.42-18.77,50.42-18.77s-13.43,13-50.88,13.13C219.46,418.61,207.39,406,207.39,406Z"/><path class="cls-1" d="M207.39,406a45.07,45.07,0,0,0,11.6,8.38,77.71,77.71,0,0,0,13.3,5.36,106.82,106.82,0,0,0,28.33,4,98.91,98.91,0,0,0,14.29-.78,82.49,82.49,0,0,0,13.91-3.28,70.07,70.07,0,0,0,13-5.9A52.09,52.09,0,0,0,313,405.05l.72.69a31.69,31.69,0,0,1-5.85,3.93c-1,.56-2.08,1.06-3.13,1.56s-2.13,1-3.22,1.36a79.08,79.08,0,0,1-13.38,3.89l-1.7.36-1.72.28-3.44.56c-2.3.25-4.6.58-6.92.74-4.62.37-9.26.5-13.89.43a154.31,154.31,0,0,1-27.64-2.55c-2.28-.4-4.52-1-6.77-1.55l-3.33-1c-1.12-.32-2.19-.75-3.29-1.13a56.06,56.06,0,0,1-6.35-2.79A25.94,25.94,0,0,1,207.39,406Zm0,0a25.69,25.69,0,0,0,5.79,3.76,54.81,54.81,0,0,0,6.38,2.68c1.1.35,2.18.76,3.29,1.07l3.34.92c2.25.5,4.49,1.07,6.77,1.43a155.05,155.05,0,0,0,27.55,2.26,130.54,130.54,0,0,0,27.49-2.5,77.58,77.58,0,0,0,13.21-3.88c1.08-.4,2.11-.9,3.17-1.35s2.06-1,3.06-1.55a30.16,30.16,0,0,0,5.63-3.79l.72.69a52.05,52.05,0,0,1-11.49,8.85,71.37,71.37,0,0,1-13.19,5.94A83.64,83.64,0,0,1,275,423.77l-3.6.37a36.09,36.09,0,0,1-3.6.26c-2.41.06-4.82.21-7.22.07a107.19,107.19,0,0,1-28.47-4.29,77.77,77.77,0,0,1-13.27-5.61A45.47,45.47,0,0,1,207.39,406Z"/><path class="cls-1" d="M220.64,384.47S232,398.1,262.35,398.1C288,398.1,300.16,384,300.16,384s-10.07,9.78-38.15,9.84C229.7,393.94,220.64,384.47,220.64,384.47Z"/><path class="cls-1" d="M220.64,384.47a34.2,34.2,0,0,0,8.72,6.26,57.69,57.69,0,0,0,10,4,79.69,79.69,0,0,0,21.23,3,76.52,76.52,0,0,0,10.7-.59,61.82,61.82,0,0,0,10.41-2.47,51.62,51.62,0,0,0,9.72-4.42,38.91,38.91,0,0,0,8.39-6.48l.72.68a23.43,23.43,0,0,1-4.42,3,44.83,44.83,0,0,1-4.78,2.2,59.82,59.82,0,0,1-10.05,2.91,94.76,94.76,0,0,1-20.78,1.77,115.44,115.44,0,0,1-20.74-2c-1.71-.3-3.39-.76-5.08-1.17l-2.5-.75c-.83-.25-1.64-.57-2.46-.86a39.6,39.6,0,0,1-4.76-2.11A19.6,19.6,0,0,1,220.64,384.47Zm0,0a19.74,19.74,0,0,0,4.35,2.81,44.36,44.36,0,0,0,4.79,2c.83.26,1.64.56,2.47.79l2.5.69c1.69.37,3.37.79,5.08,1.05a117.14,117.14,0,0,0,20.66,1.67,98.56,98.56,0,0,0,20.58-1.9,57.66,57.66,0,0,0,9.9-2.91,41.79,41.79,0,0,0,4.65-2.17,22.5,22.5,0,0,0,4.2-2.82l.72.68a39.16,39.16,0,0,1-8.65,6.66,53.2,53.2,0,0,1-9.92,4.46,62.73,62.73,0,0,1-10.58,2.46l-2.7.27c-.9.09-1.8.2-2.71.2-1.81,0-3.62.15-5.43,0a80.51,80.51,0,0,1-21.36-3.26,57.79,57.79,0,0,1-9.95-4.24A34.26,34.26,0,0,1,220.64,384.47Z"/><g id="LINE"><polygon class="cls-1" points="68.17 221.25 92.3 234.95 116.39 248.72 164.5 276.38 212.51 304.21 236.48 318.19 260.4 332.24 236.27 318.55 212.18 304.78 164.07 277.12 116.06 249.28 92.09 235.31 68.17 221.25"/></g><g id="LINE-2" data-name="LINE"><polygon class="cls-1" points="428.15 235.39 407.29 247.68 386.38 259.89 344.49 284.19 302.5 308.31 281.48 320.31 260.4 332.24 281.27 319.95 302.18 307.75 344.06 283.45 386.05 259.32 407.08 247.32 428.15 235.39"/></g><g id="LINE-3" data-name="LINE"><path class="cls-1" d="M260.4,326.59a8.63,8.63,0,0,1,.43,2.82,8.39,8.39,0,0,1-.43,2.83,9.71,9.71,0,0,1,0-5.65Z"/></g><g id="LINE-4" data-name="LINE"><path class="cls-1" d="M231,281.34a8.7,8.7,0,0,1,2.66,1.05,8.41,8.41,0,0,1,2.23,1.78,8.7,8.7,0,0,1-2.66-1.05A8.57,8.57,0,0,1,231,281.34Z"/></g><g id="LINE-5" data-name="LINE"><path class="cls-1" d="M403.66,187.32c-1.77,1.23-3.58,2.37-5.41,3.5s-3.68,2.2-5.52,3.3-3.73,2.12-5.62,3.13-3.79,2-5.73,2.94c1.77-1.23,3.58-2.37,5.41-3.5s3.68-2.2,5.52-3.3,3.73-2.12,5.62-3.13S401.72,188.24,403.66,187.32Z"/></g><g id="LINE-6" data-name="LINE"><path class="cls-1" d="M392.84,204.88c1.22-.91,2.49-1.73,3.76-2.55s2.58-1.59,3.89-2.35a84.31,84.31,0,0,1,8.07-4.18,82.07,82.07,0,0,1-7.65,4.91c-1.32.75-2.63,1.5-4,2.18S394.23,204.28,392.84,204.88Z"/></g><g id="LINE-7" data-name="LINE"><polygon class="cls-1" points="376.97 202.73 362.78 211.16 348.54 219.52 320 236.11 291.36 252.54 277.01 260.69 262.61 268.76 276.8 260.33 291.03 251.97 319.58 235.38 348.22 218.96 362.57 210.81 376.97 202.73"/></g><g id="LINE-8" data-name="LINE"><path class="cls-1" d="M235.91,284.17a25.17,25.17,0,0,1,2.82,4,24.4,24.4,0,0,1,2.08,4.45,24.07,24.07,0,0,1-2.81-4A25.12,25.12,0,0,1,235.91,284.17Z"/></g><g id="LINE-9" data-name="LINE"><path class="cls-1" d="M258.2,271.3c-1.77,1.23-3.59,2.37-5.41,3.5s-3.68,2.2-5.52,3.31-3.73,2.11-5.62,3.13-3.79,2-5.74,2.93c1.77-1.22,3.59-2.37,5.41-3.5s3.68-2.2,5.52-3.3,3.73-2.12,5.63-3.13S256.25,272.22,258.2,271.3Z"/></g><g id="LINE-10" data-name="LINE"><polygon class="cls-1" points="274.07 273.45 286.62 265.97 299.21 258.56 324.47 243.86 349.83 229.33 362.55 222.13 375.31 215 362.75 222.49 350.16 229.9 324.9 244.6 299.54 259.12 286.82 266.33 274.07 273.45"/></g><g id="LINE-11" data-name="LINE"><path class="cls-1" d="M240.81,292.65c.18,1.42.26,2.83.33,4.24s.09,2.83.1,4.25a73.09,73.09,0,0,1-.43,8.48,75.36,75.36,0,0,1-.42-8.48c0-1.42,0-2.83.1-4.25S240.64,294.07,240.81,292.65Z"/></g><g id="LINE-12" data-name="LINE"><path class="cls-1" d="M240.81,292.65c1.22-.9,2.49-1.73,3.77-2.55s2.58-1.59,3.88-2.35a83.3,83.3,0,0,1,8.08-4.17,86.93,86.93,0,0,1-7.65,4.9c-1.32.75-2.63,1.5-4,2.19S242.21,292.05,240.81,292.65Z"/></g><g id="LINE-13" data-name="LINE"><path class="cls-1" d="M408.56,212.77c-1.22.91-2.49,1.74-3.77,2.55s-2.57,1.59-3.88,2.36a86.66,86.66,0,0,1-8.07,4.17,82.07,82.07,0,0,1,7.65-4.91c1.31-.75,2.63-1.49,4-2.18S407.16,213.38,408.56,212.77Z"/></g><g id="LINE-14" data-name="LINE"><polygon class="cls-1" points="375.31 231.97 362.75 239.46 350.16 246.86 324.9 261.56 299.54 276.09 286.82 283.3 274.07 290.42 286.62 282.93 299.21 275.52 324.47 260.83 349.83 246.3 362.55 239.1 375.31 231.97"/></g><g id="LINE-15" data-name="LINE"><path class="cls-1" d="M240.81,309.62c1.31.55,2.58,1.19,3.84,1.84s2.49,1.34,3.72,2a78.18,78.18,0,0,1,7.14,4.61,73.65,73.65,0,0,1-7.56-3.87c-1.22-.72-2.44-1.43-3.63-2.21S242,310.48,240.81,309.62Z"/></g><g id="LINE-16" data-name="LINE"><path class="cls-1" d="M256.54,300.54c-1.23.91-2.5,1.74-3.77,2.55s-2.58,1.59-3.88,2.36a85.59,85.59,0,0,1-8.08,4.17,87.88,87.88,0,0,1,7.65-4.91c1.32-.74,2.63-1.49,4-2.18S255.14,301.15,256.54,300.54Z"/></g><g id="LINE-17" data-name="LINE"><path class="cls-1" d="M423.25,221.25c-1.77,1.23-3.58,2.37-5.41,3.5s-3.68,2.2-5.52,3.3-3.73,2.12-5.62,3.14-3.79,2-5.73,2.93c1.77-1.23,3.58-2.37,5.41-3.5s3.68-2.2,5.52-3.3,3.73-2.12,5.62-3.13S421.31,222.17,423.25,221.25Z"/></g><g id="LINE-18" data-name="LINE"><polygon class="cls-1" points="260.4 326.59 281.27 314.3 302.18 302.09 344.06 277.79 386.05 253.67 407.08 241.66 428.15 229.74 407.29 242.02 386.38 254.23 344.49 278.53 302.5 302.66 281.48 314.66 260.4 326.59"/></g><g id="LINE-19" data-name="LINE"><path class="cls-1" d="M255.51,318.1a26.24,26.24,0,0,1,2.81,4,24.18,24.18,0,0,1,2.08,4.46,24.92,24.92,0,0,1-2.81-4A24.49,24.49,0,0,1,255.51,318.1Z"/></g><g id="LINE-20" data-name="LINE"><path class="cls-1" d="M277.79,305.24c-1.77,1.22-3.59,2.36-5.41,3.5s-3.68,2.19-5.52,3.3-3.73,2.12-5.62,3.13-3.79,2-5.73,2.93c1.76-1.22,3.58-2.37,5.4-3.5s3.68-2.2,5.53-3.3,3.72-2.12,5.62-3.13S275.85,306.16,277.79,305.24Z"/></g><g id="LINE-21" data-name="LINE"><polygon class="cls-1" points="396.56 236.66 382.37 245.1 368.13 253.45 339.59 270.05 310.95 286.47 296.6 294.62 282.2 302.69 296.39 294.26 310.63 285.9 339.17 269.31 367.81 252.89 382.16 244.74 396.56 236.66"/></g><g id="LINE-22" data-name="LINE"><path class="cls-1" d="M274.07,273.45c.17,1.42.25,2.83.32,4.25s.09,2.82.1,4.24a75.24,75.24,0,0,1-.42,8.48,73,73,0,0,1-.43-8.48c0-1.42,0-2.83.1-4.24S273.89,274.87,274.07,273.45Z"/></g><g id="ELLIPSE"><path class="cls-1" d="M282.2,302.69a8.55,8.55,0,0,0,1.31-1.95,4.77,4.77,0,0,0,.54-2.17,5.69,5.69,0,0,0-1.75-4,13.31,13.31,0,0,0-3.79-2.58,27,27,0,0,0-4.44-1.61,15.31,15.31,0,0,1,4.7,1,11.64,11.64,0,0,1,4.14,2.6,5.46,5.46,0,0,1-.71,8.67Z"/></g><g id="ELLIPSE-2" data-name="ELLIPSE"><path class="cls-1" d="M277.79,305.24a10.16,10.16,0,0,0,2.38-1,10.56,10.56,0,0,0,2-1.58A5.49,5.49,0,0,1,277.79,305.24Z"/></g><g id="ELLIPSE-3" data-name="ELLIPSE"><path class="cls-1" d="M256.54,300.54a10,10,0,0,0,4.37,3.59,20.65,20.65,0,0,0,5.45,1.63,26.61,26.61,0,0,0,5.71.33,27.17,27.17,0,0,0,5.72-.85,17.84,17.84,0,0,1-5.66,1.51,21.28,21.28,0,0,1-5.91-.15,17.23,17.23,0,0,1-5.61-1.89A12.11,12.11,0,0,1,258.2,303,7.67,7.67,0,0,1,256.54,300.54Z"/></g><g id="LINE-23" data-name="LINE"><path class="cls-1" d="M256.54,300.54c-.18-1.41-.26-2.83-.33-4.24s-.09-2.83-.1-4.24a72.87,72.87,0,0,1,.43-8.48,75.13,75.13,0,0,1,.42,8.48c0,1.41,0,2.83-.1,4.24S256.71,299.13,256.54,300.54Z"/></g><g id="ELLIPSE-4" data-name="ELLIPSE"><path class="cls-1" d="M258.2,271.3a14.68,14.68,0,0,0-1.71,6,44.39,44.39,0,0,0,.05,6.31,14.59,14.59,0,0,1-.89-6.39,11.39,11.39,0,0,1,.74-3.19A7.43,7.43,0,0,1,258.2,271.3Z"/></g><g id="ELLIPSE-5" data-name="ELLIPSE"><path class="cls-1" d="M262.61,268.76a11.67,11.67,0,0,1-1.1.68l-1.09.63-1.1.61c-.36.21-.73.42-1.12.62a4.48,4.48,0,0,1,.87-1,6.51,6.51,0,0,1,1.07-.76,7.4,7.4,0,0,1,1.19-.52A5.65,5.65,0,0,1,262.61,268.76Z"/></g><g id="ELLIPSE-6" data-name="ELLIPSE"><path class="cls-1" d="M274.07,273.45a45,45,0,0,0-5.45-3.19,14.85,14.85,0,0,0-6-1.5,7.37,7.37,0,0,1,3.24-.22,11.34,11.34,0,0,1,3.13.95A14.79,14.79,0,0,1,274.07,273.45Z"/></g><g id="ELLIPSE-7" data-name="ELLIPSE"><path class="cls-1" d="M283.53,301.14a9.13,9.13,0,0,0-2.78-2.4,15.07,15.07,0,0,0-3.33-1.49,25.35,25.35,0,0,0-14.44,0,15.11,15.11,0,0,0-3.34,1.48,9.53,9.53,0,0,0-2.77,2.41,8.77,8.77,0,0,1,2.54-2.75,15.12,15.12,0,0,1,3.36-1.75,21.64,21.64,0,0,1,7.43-1.29,21.88,21.88,0,0,1,7.43,1.29A11.09,11.09,0,0,1,283.53,301.14Z"/></g><g id="LINE-24" data-name="LINE"><path class="cls-1" d="M392.84,204.88c.17,1.42.25,2.83.32,4.24s.09,2.83.1,4.25a75.36,75.36,0,0,1-.42,8.48,73.09,73.09,0,0,1-.43-8.48c0-1.42,0-2.83.1-4.25S392.66,206.3,392.84,204.88Z"/></g><g id="ELLIPSE-8" data-name="ELLIPSE"><path class="cls-1" d="M401,234.12a8.55,8.55,0,0,0,1.31-2,4.77,4.77,0,0,0,.54-2.17,5.66,5.66,0,0,0-1.75-4,13.11,13.11,0,0,0-3.79-2.58,26.11,26.11,0,0,0-4.44-1.61,15.31,15.31,0,0,1,4.7,1,11.5,11.5,0,0,1,4.14,2.6,5.46,5.46,0,0,1-.71,8.67Z"/></g><g id="ELLIPSE-9" data-name="ELLIPSE"><path class="cls-1" d="M396.56,236.66a9.75,9.75,0,0,0,2.38-1,9.85,9.85,0,0,0,2-1.57A5.46,5.46,0,0,1,396.56,236.66Z"/></g><g id="ELLIPSE-10" data-name="ELLIPSE"><path class="cls-1" d="M375.31,232a10,10,0,0,0,4.37,3.59,20.65,20.65,0,0,0,5.45,1.63,27.26,27.26,0,0,0,5.71.33,26.55,26.55,0,0,0,5.72-.86,17.86,17.86,0,0,1-5.66,1.52A22.08,22.08,0,0,1,385,238a17.23,17.23,0,0,1-5.61-1.89A13,13,0,0,1,377,234.4,7.67,7.67,0,0,1,375.31,232Z"/></g><g id="LINE-25" data-name="LINE"><path class="cls-1" d="M375.31,232c-.18-1.41-.26-2.83-.33-4.24s-.09-2.83-.1-4.24a73.15,73.15,0,0,1,.43-8.49,75.42,75.42,0,0,1,.42,8.49c0,1.41,0,2.82-.1,4.24S375.48,230.56,375.31,232Z"/></g><g id="ELLIPSE-11" data-name="ELLIPSE"><path class="cls-1" d="M377,202.73a14.63,14.63,0,0,0-1.71,6,44.25,44.25,0,0,0,.05,6.3,14.52,14.52,0,0,1-.89-6.38,11,11,0,0,1,.75-3.19A7.41,7.41,0,0,1,377,202.73Z"/></g><g id="ELLIPSE-12" data-name="ELLIPSE"><path class="cls-1" d="M381.38,200.19c-.76.4-1.53.75-2.26,1.18s-1.44.88-2.15,1.36a7.43,7.43,0,0,1,2-1.6A9.15,9.15,0,0,1,381.38,200.19Z"/></g><g id="ELLIPSE-13" data-name="ELLIPSE"><path class="cls-1" d="M392.84,204.88a45.66,45.66,0,0,0-5.44-3.19,14.94,14.94,0,0,0-6-1.5,7.37,7.37,0,0,1,3.24-.22,11.34,11.34,0,0,1,3.13.95A14.55,14.55,0,0,1,392.84,204.88Z"/></g><g id="ELLIPSE-14" data-name="ELLIPSE"><path class="cls-1" d="M402.3,232.56a9.23,9.23,0,0,0-2.78-2.39,15.07,15.07,0,0,0-3.33-1.49,25.35,25.35,0,0,0-14.44,0,15.11,15.11,0,0,0-3.34,1.48,9.49,9.49,0,0,0-2.77,2.4,8.77,8.77,0,0,1,2.54-2.75,15.55,15.55,0,0,1,3.36-1.75,22.12,22.12,0,0,1,14.86,0A11.12,11.12,0,0,1,402.3,232.56Z"/></g><g id="ELLIPSE-15" data-name="ELLIPSE"><path class="cls-1" d="M277,305.52a2.69,2.69,0,0,0-.69-3.43,7.85,7.85,0,0,0-3.44-1.6,13.65,13.65,0,0,0-3.88-.32,11.68,11.68,0,0,0-3.88.83,8.34,8.34,0,0,1,3.81-1.49,11.16,11.16,0,0,1,4.15.15,7.32,7.32,0,0,1,3.7,2,3.36,3.36,0,0,1,.92,1.95A2.6,2.6,0,0,1,277,305.52Z"/></g><g id="ELLIPSE-17" data-name="ELLIPSE"><path class="cls-1" d="M395.72,237a2.69,2.69,0,0,0-.69-3.43,8,8,0,0,0-3.44-1.61,14,14,0,0,0-3.88-.32,12.2,12.2,0,0,0-3.88.83,8.45,8.45,0,0,1,3.81-1.49,11.16,11.16,0,0,1,4.15.16,7.32,7.32,0,0,1,3.7,2,3.33,3.33,0,0,1,.92,1.94A2.61,2.61,0,0,1,395.72,237Z"/></g><g id="LINE-26" data-name="LINE"><path class="cls-1" d="M68.17,221.25a28.57,28.57,0,0,1,0-5.65c.11.94.12,1.88.14,2.83S68.28,220.31,68.17,221.25Z"/></g><g id="LINE-27" data-name="LINE"><path class="cls-1" d="M68.17,215.6a28.25,28.25,0,0,1,2.37-1.54,27.18,27.18,0,0,1,2.52-1.29,28.25,28.25,0,0,1-2.37,1.54C69.86,214.76,69,215.23,68.17,215.6Z"/></g><g id="LINE-28" data-name="LINE"><path class="cls-1" d="M87.76,204.29a26.1,26.1,0,0,1,2.38-1.54,24.88,24.88,0,0,1,2.52-1.29c-.76.57-1.57,1-2.38,1.54S88.63,203.92,87.76,204.29Z"/></g><g id="LINE-29" data-name="LINE"><path class="cls-1" d="M87.76,221.25c-.18-1.41-.26-2.82-.33-4.24s-.09-2.83-.1-4.24a73,73,0,0,1,.43-8.48,75.24,75.24,0,0,1,.42,8.48c0,1.41,0,2.83-.1,4.24S87.93,219.84,87.76,221.25Z"/></g><g id="LINE-30" data-name="LINE"><path class="cls-1" d="M92.66,201.46a25.82,25.82,0,0,1,2.51,1.29,24.79,24.79,0,0,1,2.38,1.54c-.87-.37-1.69-.84-2.52-1.29A28.25,28.25,0,0,1,92.66,201.46Z"/></g><g id="LINE-31" data-name="LINE"><path class="cls-1" d="M92.66,201.46A28.25,28.25,0,0,1,95,199.92c.83-.45,1.65-.92,2.52-1.29a24.79,24.79,0,0,1-2.38,1.54A25.82,25.82,0,0,1,92.66,201.46Z"/></g><g id="LINE-32" data-name="LINE"><path class="cls-1" d="M73.06,212.77c1.32.56,2.58,1.19,3.84,1.84s2.49,1.34,3.72,2a75.53,75.53,0,0,1,7.14,4.61,73.65,73.65,0,0,1-7.56-3.87c-1.22-.72-2.44-1.43-3.63-2.21S74.2,213.63,73.06,212.77Z"/></g><g id="LINE-33" data-name="LINE"><path class="cls-1" d="M73.06,212.77c1.14-.86,2.32-1.64,3.51-2.4s2.41-1.49,3.63-2.21a73.65,73.65,0,0,1,7.56-3.87,75.53,75.53,0,0,1-7.14,4.61c-1.23.69-2.46,1.39-3.72,2S74.38,212.22,73.06,212.77Z"/></g><g id="ELLIPSE-18" data-name="ELLIPSE"><path class="cls-1" d="M156,215.18a7.93,7.93,0,0,0,3.11-.26,5.52,5.52,0,0,0,2.5-1.74,7,7,0,0,0,1.4-2.71,11.72,11.72,0,0,0,.44-3.06,26.25,26.25,0,0,0-12-20.8,12,12,0,0,0-2.86-1.16,7,7,0,0,0-3-.18,5.39,5.39,0,0,0-2.77,1.27,7.2,7.2,0,0,0-1.81,2.54,6.72,6.72,0,0,1,1.66-2.7,5.64,5.64,0,0,1,2.84-1.52,7.43,7.43,0,0,1,3.25.07,12.37,12.37,0,0,1,3.05,1.1,19.94,19.94,0,0,1,5.08,4,27,27,0,0,1,6.37,11.06,19.71,19.71,0,0,1,.86,6.38,12,12,0,0,1-.58,3.2,7.41,7.41,0,0,1-1.6,2.82,5.87,5.87,0,0,1-2.74,1.69A7.42,7.42,0,0,1,156,215.18Z"/></g><g id="LINE-34" data-name="LINE"><polygon class="cls-1" points="398.76 184.49 377.9 196.78 356.99 208.99 315.1 233.29 273.12 257.41 252.09 269.42 231.02 281.34 251.88 269.06 272.79 256.85 314.68 232.55 356.67 208.42 377.69 196.42 398.76 184.49"/></g><g id="LINE-35" data-name="LINE"><path class="cls-1" d="M231,227.62c.17,4.47.25,8.95.32,13.43s.07,8.95.1,13.43,0,9-.1,13.43-.15,9-.32,13.43c-.18-4.47-.26-8.95-.33-13.43s-.06-9-.1-13.43,0-9,.1-13.43S230.84,232.09,231,227.62Z"/></g><g id="LINE-36" data-name="LINE"><path class="cls-1" d="M428.15,229.74a9.83,9.83,0,0,1,.22,1.41,16.72,16.72,0,0,1,0,2.83,9.83,9.83,0,0,1-.22,1.41,9.83,9.83,0,0,1-.22-1.41,16.72,16.72,0,0,1,0-2.83A9.83,9.83,0,0,1,428.15,229.74Z"/></g><g id="LINE-37" data-name="LINE"><path class="cls-1" d="M428.15,229.74c-.51-.65-1-1.33-1.41-2s-.87-1.38-1.28-2.08-.81-1.42-1.17-2.16-.73-1.46-1-2.23c.51.65,1,1.33,1.42,2s.86,1.38,1.28,2.08.8,1.42,1.16,2.16S427.84,229,428.15,229.74Z"/></g><g id="LINE-38" data-name="LINE"><path class="cls-1" d="M408.56,212.77c1.31.56,2.58,1.19,3.84,1.84s2.49,1.34,3.72,2a76.68,76.68,0,0,1,7.13,4.61,75.77,75.77,0,0,1-7.56-3.87c-1.22-.72-2.43-1.43-3.62-2.21S409.7,213.63,408.56,212.77Z"/></g><g id="LINE-39" data-name="LINE"><path class="cls-1" d="M408.56,195.8c.18,1.42.26,2.83.33,4.25s.08,2.82.09,4.24a73,73,0,0,1-.42,8.48,73,73,0,0,1-.42-8.48c0-1.42,0-2.83.09-4.24S408.38,197.22,408.56,195.8Z"/></g><g id="LINE-40" data-name="LINE"><path class="cls-1" d="M408.56,195.8a25.09,25.09,0,0,1-2.82-4,26.26,26.26,0,0,1-2.08-4.46,25.17,25.17,0,0,1,2.82,4A25.81,25.81,0,0,1,408.56,195.8Z"/></g><g id="LINE-41" data-name="LINE"><path class="cls-1" d="M398.76,184.49a9.61,9.61,0,0,1,4.9,2.83,9.53,9.53,0,0,1-4.9-2.83Z"/></g><g id="LINE-42" data-name="LINE"><path class="cls-1" d="M398.76,184.49c-.17-4.47-.25-9-.32-13.43s-.06-8.95-.1-13.43,0-8.95.1-13.43.15-9,.32-13.43c.18,4.47.26,8.95.33,13.43s.07,9,.1,13.43,0,9-.1,13.43S398.94,180,398.76,184.49Z"/></g><g id="LINE-43" data-name="LINE"><path class="cls-1" d="M97.55,204.29c-.17-4.48-.25-9-.32-13.43s-.07-9-.1-13.44,0-8.95.1-13.43.15-9,.32-13.43c.18,4.48.26,9,.33,13.43s.06,9,.1,13.43,0,9-.1,13.44S97.73,199.81,97.55,204.29Z"/></g><g id="LINE-44" data-name="LINE"><polygon class="cls-1" points="398.76 130.77 377.9 143.05 356.99 155.26 315.1 179.56 273.12 203.69 252.09 215.69 231.02 227.62 251.88 215.33 272.79 203.12 314.68 178.82 356.67 154.7 377.69 142.69 398.76 130.77"/></g><g id="LINE-45" data-name="LINE"><path class="cls-1" d="M97.55,150.56a40,40,0,0,1,10.08,5.82,35.3,35.3,0,0,1-5.25-2.54A36,36,0,0,1,97.55,150.56Z"/></g><g id="LINE-46" data-name="LINE"><polygon class="cls-1" points="135.34 172.38 147.4 179.1 159.42 185.9 183.39 199.63 207.26 213.52 219.16 220.53 231.02 227.62 218.95 220.89 206.93 214.09 182.96 200.36 159.09 186.47 147.19 179.46 135.34 172.38"/></g><g id="ELLIPSE-19" data-name="ELLIPSE"><path class="cls-1" d="M138.63,220.07a3.93,3.93,0,0,0,2.66-1.44,5.45,5.45,0,0,0,1.07-2.81,13.09,13.09,0,0,0-.93-6.07,19.2,19.2,0,0,0-3.05-5.44,16.54,16.54,0,0,0-2.15-2.28,11.91,11.91,0,0,0-2.62-1.76,11.89,11.89,0,0,1,5.27,3.62,18.34,18.34,0,0,1,3.35,5.56,13,13,0,0,1,.77,6.47,5.92,5.92,0,0,1-1.4,3A4,4,0,0,1,138.63,220.07Z"/></g><g id="ELLIPSE-20" data-name="ELLIPSE"><path class="cls-1" d="M107.63,192.28a5.8,5.8,0,0,0,1.9,3.74,11.4,11.4,0,0,0,3.59,2.27,23.07,23.07,0,0,0,16.73,0,11.63,11.63,0,0,0,3.59-2.27,5.8,5.8,0,0,0,1.9-3.74,5.8,5.8,0,0,1-1.6,4,12,12,0,0,1-3.62,2.58,21.39,21.39,0,0,1-17.27,0,12,12,0,0,1-3.62-2.58A5.75,5.75,0,0,1,107.63,192.28Z"/></g><g id="ELLIPSE-21" data-name="ELLIPSE"><path class="cls-1" d="M109.36,200.77A5.11,5.11,0,0,0,111,204a10.16,10.16,0,0,0,3.14,2,20.44,20.44,0,0,0,14.61,0,10.16,10.16,0,0,0,3.14-2,5.15,5.15,0,0,0,1.68-3.25,5.1,5.1,0,0,1-1.38,3.54,10.47,10.47,0,0,1-3.17,2.27,18.63,18.63,0,0,1-15.15,0,10.47,10.47,0,0,1-3.17-2.27A5.05,5.05,0,0,1,109.36,200.77Z"/></g><g id="ELLIPSE-22" data-name="ELLIPSE"><path class="cls-1" d="M109.36,209.25a5.13,5.13,0,0,0,1.68,3.26,10.13,10.13,0,0,0,3.14,2,20.44,20.44,0,0,0,14.61,0,10.16,10.16,0,0,0,3.14-2,5.13,5.13,0,0,0,1.68-3.25,5.08,5.08,0,0,1-1.38,3.54,10.68,10.68,0,0,1-3.17,2.28,18.68,18.68,0,0,1-15.15,0,10.47,10.47,0,0,1-3.17-2.27A5,5,0,0,1,109.36,209.25Z"/></g><g id="ELLIPSE-23" data-name="ELLIPSE"><path class="cls-1" d="M110.4,203.6a5.55,5.55,0,0,0-.85,2.08,4,4,0,0,0,.3,2.16,6.81,6.81,0,0,0,3,3.12,17.54,17.54,0,0,0,8.63,2,17.29,17.29,0,0,0,8.63-2,6.78,6.78,0,0,0,3-3.11,4,4,0,0,0,.29-2.16,5,5,0,0,0-.85-2.08,4.41,4.41,0,0,1,1,4.38,7.29,7.29,0,0,1-3.07,3.53,17.39,17.39,0,0,1-9,2.33,20.17,20.17,0,0,1-4.64-.56,14.23,14.23,0,0,1-4.33-1.77,7.22,7.22,0,0,1-3.06-3.53,4.44,4.44,0,0,1-.14-2.34A5.15,5.15,0,0,1,110.4,203.6Z"/></g><g id="LINE-47" data-name="LINE"><path class="cls-1" d="M119,236.11c-1.32-.55-2.58-1.19-3.84-1.83s-2.49-1.34-3.72-2a71.75,71.75,0,0,1-7.14-4.61,73.65,73.65,0,0,1,7.56,3.87c1.22.72,2.44,1.44,3.62,2.21S117.9,235.26,119,236.11Z"/></g><g id="LINE-48" data-name="LINE"><path class="cls-1" d="M138.63,224.8c-.18-1.41-.26-2.82-.33-4.24s-.09-2.83-.1-4.24a72.87,72.87,0,0,1,.43-8.48,75.13,75.13,0,0,1,.42,8.48c0,1.41,0,2.83-.1,4.24S138.8,223.39,138.63,224.8Z"/></g><g id="LINE-49" data-name="LINE"><path class="cls-1" d="M138.63,224.8c-1.55,1.1-3.14,2.11-4.74,3.11s-3.22,2-4.85,2.92c-3.27,1.87-6.57,3.69-10,5.28,3.09-2.17,6.32-4.12,9.58-6,1.64-.93,3.27-1.87,4.95-2.74S136.91,225.59,138.63,224.8Z"/></g><g id="LINE-50" data-name="LINE"><path class="cls-1" d="M119,219.15c.17,1.41.25,2.83.32,4.24s.09,2.83.1,4.24a75.13,75.13,0,0,1-.42,8.48,72.87,72.87,0,0,1-.43-8.48c0-1.41,0-2.83.1-4.24S118.86,220.56,119,219.15Z"/></g><g id="LINE-51" data-name="LINE"><path class="cls-1" d="M138.63,207.84a10.36,10.36,0,0,1-2.91-1.19,10.09,10.09,0,0,1-2.47-1.92,11.67,11.67,0,0,1,5.38,3.11Z"/></g><g id="LINE-52" data-name="LINE"><path class="cls-1" d="M138.63,207.84a10.59,10.59,0,0,1-2.48,1.92,10,10,0,0,1-2.9,1.18,10.09,10.09,0,0,1,2.47-1.92A10.34,10.34,0,0,1,138.63,207.84Z"/></g><g id="LINE-53" data-name="LINE"><path class="cls-1" d="M124.42,216a11.67,11.67,0,0,1-5.38,3.11,9.85,9.85,0,0,1,2.47-1.92A10.36,10.36,0,0,1,124.42,216Z"/></g><g id="LINE-54" data-name="LINE"><path class="cls-1" d="M104.34,210.66c1.31.56,2.58,1.2,3.84,1.84s2.49,1.34,3.72,2a74.15,74.15,0,0,1,7.14,4.61,71.78,71.78,0,0,1-7.56-3.88c-1.22-.71-2.44-1.43-3.63-2.2S105.48,211.52,104.34,210.66Z"/></g><g id="LINE-55" data-name="LINE"><path class="cls-1" d="M109.36,207.77a9,9,0,0,1-2.3,1.81,8.65,8.65,0,0,1-2.72,1.08,10.17,10.17,0,0,1,5-2.89Z"/></g><g id="LINE-56" data-name="LINE"><path class="cls-1" d="M104.34,227.63c-.17-1.41-.26-2.83-.32-4.24s-.09-2.83-.1-4.24a75.42,75.42,0,0,1,.42-8.49,73.15,73.15,0,0,1,.43,8.49c0,1.41,0,2.83-.1,4.24S104.52,226.22,104.34,227.63Z"/></g><g id="LINE-57" data-name="LINE"><path class="cls-1" d="M157.61,214.26a24.07,24.07,0,0,1,2.4-4.16,24.57,24.57,0,0,1,3.1-3.68,23.89,23.89,0,0,1-2.4,4.17A24.5,24.5,0,0,1,157.61,214.26Z"/></g><g id="LINE-58" data-name="LINE"><path class="cls-1" d="M157.61,214.26c-1.35,1-2.73,1.87-4.13,2.76s-2.81,1.72-4.23,2.56c-2.87,1.64-5.76,3.22-8.79,4.58,2.69-1.94,5.51-3.66,8.36-5.32,1.44-.81,2.87-1.63,4.34-2.39S156.09,214.93,157.61,214.26Z"/></g><g id="LINE-59" data-name="LINE"><path class="cls-1" d="M163.11,206.42c-.62-1.12-1.15-2.27-1.68-3.43s-1-2.33-1.47-3.51a60.85,60.85,0,0,1-2.35-7.26,61,61,0,0,1,3.15,6.95c.45,1.19.89,2.37,1.28,3.58S162.82,205.18,163.11,206.42Z"/></g><g id="LINE-60" data-name="LINE"><path class="cls-1" d="M163.11,206.42c-1.34,1-2.72,1.88-4.12,2.76s-2.81,1.73-4.23,2.56c-2.87,1.64-5.76,3.22-8.79,4.58,2.69-1.94,5.51-3.66,8.36-5.32,1.44-.81,2.87-1.63,4.34-2.38S161.6,207.1,163.11,206.42Z"/></g><g id="LINE-61" data-name="LINE"><path class="cls-1" d="M146.59,185.86a44,44,0,0,1-5.42,3.61,42.66,42.66,0,0,1-5.83,2.88,50,50,0,0,1,11.25-6.49Z"/></g><g id="LINE-62" data-name="LINE"><path class="cls-1" d="M157.61,192.22a42.24,42.24,0,0,1-5.73-2.81,41.4,41.4,0,0,1-5.29-3.55,42.71,42.71,0,0,1,5.72,2.81A43.34,43.34,0,0,1,157.61,192.22Z"/></g><g id="LINE-63" data-name="LINE"><path class="cls-1" d="M157.61,192.22c-1.35,1-2.73,1.87-4.13,2.76s-2.81,1.72-4.23,2.56c-2.87,1.64-5.76,3.22-8.79,4.58,2.69-1.94,5.51-3.66,8.36-5.32,1.44-.81,2.87-1.63,4.34-2.39S156.09,192.89,157.61,192.22Z"/></g><g id="LINE-64" data-name="LINE"><path class="cls-1" d="M140.46,202.12c.63,1.12,1.16,2.27,1.68,3.43s1,2.34,1.47,3.52a58.44,58.44,0,0,1,2.36,7.25,60.19,60.19,0,0,1-3.15-6.95c-.45-1.18-.9-2.37-1.28-3.58S140.76,203.37,140.46,202.12Z"/></g><g id="LINE-65" data-name="LINE"><path class="cls-1" d="M146,216.32a24.07,24.07,0,0,1-2.4,4.16,23.59,23.59,0,0,1-3.11,3.68,27.16,27.16,0,0,1,5.51-7.84Z"/></g><g id="LINE-66" data-name="LINE"><path class="cls-1" d="M133.61,198.16a18.5,18.5,0,0,1,6.85,4,16.52,16.52,0,0,1-3.64-1.61A17,17,0,0,1,133.61,198.16Z"/></g><g id="LINE-67" data-name="LINE"><path class="cls-1" d="M97.55,150.56c-.17-3.77-.25-7.54-.32-11.31s-.07-7.54-.1-11.31,0-7.54.1-11.31.15-7.54.32-11.31c.18,3.77.26,7.54.33,11.31s.06,7.54.1,11.31,0,7.54-.1,11.31S97.73,146.79,97.55,150.56Z"/></g><g id="LINE-68" data-name="LINE"><path class="cls-1" d="M97.55,150.56c1.74.87,3.43,1.83,5.11,2.79s3.35,2,5,3c-1.74-.87-3.42-1.83-5.11-2.79S99.17,151.63,97.55,150.56Z"/></g><g id="LINE-69" data-name="LINE"><polygon class="cls-1" points="135.34 172.38 147.4 179.1 159.42 185.9 183.39 199.63 207.26 213.52 219.16 220.53 231.02 227.62 218.95 220.89 206.93 214.09 182.96 200.36 159.09 186.47 147.19 179.46 135.34 172.38"/></g><g id="LINE-70" data-name="LINE"><polygon class="cls-1" points="231.02 227.62 251.88 215.33 272.79 203.12 314.68 178.82 356.66 154.7 377.69 142.69 398.76 130.77 377.9 143.05 356.99 155.26 315.1 179.56 273.12 203.69 252.09 215.69 231.02 227.62"/></g><g id="LINE-71" data-name="LINE"><path class="cls-1" d="M231,227.62c-.18-3.77-.26-7.54-.33-11.31s-.06-7.55-.1-11.32,0-7.54.1-11.31.15-7.54.33-11.31c.17,3.77.26,7.54.32,11.31s.07,7.54.1,11.31,0,7.54-.1,11.32S231.19,223.85,231,227.62Z"/></g><g id="LINE-72" data-name="LINE"><polygon class="cls-1" points="231.02 182.37 251.88 170.09 272.79 157.88 314.68 133.58 356.66 109.45 377.69 97.45 398.76 85.52 377.9 97.81 356.99 110.02 315.1 134.32 273.12 158.44 252.09 170.44 231.02 182.37"/></g><g id="LINE-73" data-name="LINE"><path class="cls-1" d="M398.76,130.77c-.17-3.77-.25-7.54-.32-11.31s-.06-7.54-.1-11.32,0-7.54.1-11.31.15-7.54.32-11.31c.18,3.77.26,7.54.33,11.31s.07,7.54.1,11.31,0,7.55-.1,11.32S398.94,127,398.76,130.77Z"/></g><g id="LINE-74" data-name="LINE"><path class="cls-1" d="M393.87,82.7A27.18,27.18,0,0,1,396.39,84a25.84,25.84,0,0,1,2.37,1.53,27.18,27.18,0,0,1-2.52-1.29A25.84,25.84,0,0,1,393.87,82.7Z"/></g><g id="LINE-75" data-name="LINE"><path class="cls-1" d="M231,176.72a9.71,9.71,0,0,1,0,5.65,8.39,8.39,0,0,1-.43-2.83A8.63,8.63,0,0,1,231,176.72Z"/></g><g id="LINE-76" data-name="LINE"><path class="cls-1" d="M97.55,105.32a50.25,50.25,0,0,1,6.15,3.05,48.91,48.91,0,0,1,5.72,3.8,55.64,55.64,0,0,1-11.87-6.85Z"/></g><g id="LINE-77" data-name="LINE"><polygon class="cls-1" points="134.99 126.93 147.1 133.68 159.16 140.51 183.22 154.28 207.17 168.23 219.12 175.26 231.02 182.37 218.91 175.62 206.85 168.8 182.79 155.02 158.84 141.07 146.89 134.04 134.99 126.93"/></g><g id="LINE-78" data-name="LINE"><path class="cls-1" d="M97.55,105.32a26.1,26.1,0,0,1,2.38-1.54,27.18,27.18,0,0,1,2.52-1.29c-.76.57-1.57,1.05-2.38,1.54A27.13,27.13,0,0,1,97.55,105.32Z"/></g><g id="LINE-79" data-name="LINE"><polygon class="cls-1" points="265.3 8.47 281.48 17.57 297.61 26.74 329.8 45.21 361.89 63.85 377.9 73.24 393.87 82.7 377.69 73.6 361.56 64.42 329.37 45.95 297.28 27.31 281.27 17.93 265.3 8.47"/></g><g id="LINE-80" data-name="LINE"><polygon class="cls-1" points="393.87 82.7 373.61 94.63 353.32 106.48 312.65 130.07 271.89 153.5 251.48 165.15 231.02 176.72 251.27 164.78 271.57 152.93 312.23 129.34 352.99 105.92 373.41 94.27 393.87 82.7"/></g><g id="LINE-81" data-name="LINE"><polygon class="cls-1" points="231.02 176.72 218.86 169.94 206.75 163.08 182.6 149.25 158.54 135.25 146.55 128.19 134.6 121.05 146.76 127.83 158.87 134.68 183.02 148.52 207.07 162.52 219.07 169.58 231.02 176.72"/></g><g id="LINE-82" data-name="LINE"><path class="cls-1" d="M110.35,107.05a22.14,22.14,0,0,1-4.16-1.91,21.88,21.88,0,0,1-3.74-2.65,21.53,21.53,0,0,1,4.16,1.91A21.88,21.88,0,0,1,110.35,107.05Z"/></g><g id="LINE-83" data-name="LINE"><polygon class="cls-1" points="102.45 102.49 122.7 90.56 143 78.7 183.66 55.11 224.43 31.69 244.84 20.04 265.3 8.47 245.05 20.4 224.75 32.26 184.09 55.85 143.33 79.27 122.91 90.92 102.45 102.49"/></g><g id="SPLINE"><path class="cls-1" d="M107.63,192.28l-.21-26.38c-.06-8.79,0-17.59,0-26.39a174.79,174.79,0,0,1,1.49-26.36q.48-3.29,1.15-6.52l.72-3.22.33-1.62.44-1.64a14,14,0,0,1,3.78-5.57,12.6,12.6,0,0,1,2.83-1.89,8.14,8.14,0,0,1,3.35-.85,10.2,10.2,0,0,1,6.19,2.74,13.13,13.13,0,0,1,3.77,5.58,30,30,0,0,1,.78,3.25c.23,1.06.5,2.13.71,3.22.4,2.17.86,4.33,1.16,6.52a186,186,0,0,1,1.54,26.36l-.09,26.39-.2,26.38L135,139.52a194.94,194.94,0,0,0-1.66-26.26c-.3-2.17-.77-4.31-1.17-6.47-.21-1.07-.48-2.13-.72-3.22a25.87,25.87,0,0,0-.76-3.15,12.39,12.39,0,0,0-3.55-5.22,9.52,9.52,0,0,0-5.64-2.51,9.32,9.32,0,0,0-5.63,2.51,13.06,13.06,0,0,0-3.56,5.21l-.43,1.55-.32,1.61-.73,3.22c-.46,2.14-.84,4.3-1.17,6.47a184.16,184.16,0,0,0-1.6,26.26Z"/></g></svg>