<svg id="Lines_text" data-name="Lines/text" xmlns="http://www.w3.org/2000/svg" viewBox="0 0 937.49 841.89"><defs><style>.cls-1{fill:#212529;}</style></defs><g id="ELLIPSE"><path class="cls-1" d="M82.86,480.62a14.69,14.69,0,0,0,5.29,9,30.35,30.35,0,0,0,9,5.19,58.28,58.28,0,0,0,20.68,3.55,58.25,58.25,0,0,0,20.68-3.56,30.5,30.5,0,0,0,9-5.18,14.81,14.81,0,0,0,5.29-9,11.81,11.81,0,0,1-.62,5.62,17,17,0,0,1-2.91,5,29.09,29.09,0,0,1-9.17,7.07,52.44,52.44,0,0,1-44.59,0,29.06,29.06,0,0,1-9.17-7.06,17,17,0,0,1-2.91-5A11.81,11.81,0,0,1,82.86,480.62Z"/></g><g id="ELLIPSE-2" data-name="ELLIPSE"><path class="cls-1" d="M87.23,502A13.17,13.17,0,0,0,92,509.78a27.15,27.15,0,0,0,7.88,4.41,54.92,54.92,0,0,0,36,0,27.25,27.25,0,0,0,7.88-4.41,13.2,13.2,0,0,0,4.75-7.74,12.38,12.38,0,0,1-3,9.44,25.47,25.47,0,0,1-8,6.29,45.39,45.39,0,0,1-39.2,0,25.8,25.8,0,0,1-8-6.29A12.44,12.44,0,0,1,87.23,502Z"/></g><g id="ELLIPSE-3" data-name="ELLIPSE"><path class="cls-1" d="M87.23,523.47A13.2,13.2,0,0,0,92,531.21a27.15,27.15,0,0,0,7.88,4.41,54.92,54.92,0,0,0,36,0,27.25,27.25,0,0,0,7.88-4.41,13.2,13.2,0,0,0,4.75-7.74,12.38,12.38,0,0,1-3,9.44,25.61,25.61,0,0,1-8,6.29,45.39,45.39,0,0,1-39.2,0,26,26,0,0,1-8-6.29A12.44,12.44,0,0,1,87.23,523.47Z"/></g><g id="ELLIPSE-4" data-name="ELLIPSE"><path class="cls-1" d="M89.85,509.19a14.75,14.75,0,0,0-1.76,5.33,9.92,9.92,0,0,0,1,5.13,7.78,7.78,0,0,0,.61,1.14l.74,1.08a17.18,17.18,0,0,0,1.82,1.9,23.56,23.56,0,0,0,4.37,3.05,39.14,39.14,0,0,0,10.26,3.57,54.76,54.76,0,0,0,21.89,0,38.21,38.21,0,0,0,10.25-3.61,24,24,0,0,0,2.29-1.38,9.49,9.49,0,0,0,1.06-.8c.33-.29.72-.53,1-.84a19.3,19.3,0,0,0,1.82-1.91,12.83,12.83,0,0,0,1.37-2.2,10.59,10.59,0,0,0,.84-2.47,11.29,11.29,0,0,0,.14-2.67,13.33,13.33,0,0,0-1.74-5.33,13.47,13.47,0,0,1,1.86,2.3,12.14,12.14,0,0,1,1.24,2.77,11.2,11.2,0,0,1,0,6.26,14.7,14.7,0,0,1-1.28,2.93A24.76,24.76,0,0,1,145.8,526a23.51,23.51,0,0,1-4.7,4.11A36.41,36.41,0,0,1,129.88,535a49.11,49.11,0,0,1-24,0,37.06,37.06,0,0,1-11.22-4.84A22.72,22.72,0,0,1,89.93,526a18.82,18.82,0,0,1-1.85-2.57,15,15,0,0,1-1.26-2.94,11.36,11.36,0,0,1-.08-6.25A12.91,12.91,0,0,1,89.85,509.19Z"/></g><g id="LINE"><path class="cls-1" d="M415.8,380.54a13.91,13.91,0,0,1,2,4.62,20.17,20.17,0,0,1,0,9.23,14.16,14.16,0,0,1-2,4.62,13.91,13.91,0,0,1-2-4.62,19.55,19.55,0,0,1-.54-4.61,20.81,20.81,0,0,1,.54-4.62A14.34,14.34,0,0,1,415.8,380.54Z"/></g><g id="LINE-2" data-name="LINE"><path class="cls-1" d="M585.82,54c13,6.3,25.74,13,38.39,19.92,6.36,3.4,12.62,7,18.93,10.44l18.78,10.69L680.56,106c6.17,3.72,12.39,7.36,18.51,11.16,12.29,7.52,24.49,15.19,36.45,23.3-13-6.3-25.75-13-38.4-19.92-6.36-3.4-12.62-7-18.92-10.44L659.42,99.39,640.77,88.46c-6.16-3.72-12.38-7.36-18.5-11.16C610,69.78,597.78,62.11,585.82,54Z"/></g><g id="LINE-3" data-name="LINE"><path class="cls-1" d="M151.32,304.87l13.39-8.17,13.43-8.08L205,272.45q26.94-16.05,54-32c18-10.65,36.07-21.15,54.1-31.72l54.25-31.48L421.7,146c18.17-10.33,36.3-20.75,54.52-31S512.64,94.5,530.89,84.3l27.44-15.19,13.72-7.59L585.82,54l-13.39,8.16L559,70.26,532.12,86.43q-26.94,16-53.95,32c-18,10.66-36.07,21.15-54.11,31.72L369.82,181.6l-54.38,31.24c-18.18,10.33-36.31,20.74-54.53,31s-36.42,20.53-54.67,30.72l-27.44,15.2-13.72,7.59Z"/></g><g id="LINE-4" data-name="LINE"><path class="cls-1" d="M294.46,395.08c-12.4-6-24.56-12.36-36.63-18.9-6.06-3.24-12-6.62-18-9.94l-17.9-10.17-17.76-10.41c-5.87-3.55-11.79-7-17.62-10.65-11.7-7.18-23.32-14.52-34.69-22.28,12.41,6,24.57,12.35,36.64,18.9,6.06,3.23,12,6.62,18,9.93l17.89,10.18,17.76,10.41c5.88,3.55,11.8,7,17.62,10.66C271.48,380,283.09,387.32,294.46,395.08Z"/></g><g id="LINE-5" data-name="LINE"><path class="cls-1" d="M735.52,140.44l-13.6,8.28-13.64,8.2L681,173.32q-27.35,16.31-54.77,32.46C608,216.59,589.61,227.24,571.3,238l-55.06,32L461,301.64c-18.45,10.49-36.85,21.06-55.34,31.47s-37,20.84-55.49,31.2l-27.85,15.43-13.93,7.71-14,7.63,13.6-8.28,13.64-8.21L349,362.19q27.34-16.29,54.77-32.46c18.26-10.81,36.62-21.46,54.92-32.19l55.07-32,55.2-31.71c18.45-10.49,36.85-21,55.34-31.47s37-20.84,55.5-31.2l27.84-15.43,13.93-7.71Z"/></g><g id="ELLIPSE-5" data-name="ELLIPSE"><path class="cls-1" d="M161.15,550a9.79,9.79,0,0,0,5.85-4.15,14.26,14.26,0,0,0,1.88-6.64,29,29,0,0,0-.54-7.11,48.72,48.72,0,0,0-2-7,56.4,56.4,0,0,0-7-13,40.5,40.5,0,0,0-10.81-10.58,20.89,20.89,0,0,1,7.48,2.92,32.14,32.14,0,0,1,6.33,5.12,40.37,40.37,0,0,1,8.7,13.78,39,39,0,0,1,2,8,25.92,25.92,0,0,1-.25,8.42,14.84,14.84,0,0,1-3.88,7.64A9.36,9.36,0,0,1,161.15,550Z"/></g><g id="LINE-6" data-name="LINE"><path class="cls-1" d="M381.74,594.4c-1-8-1.57-16.07-1.94-24.1s-.55-16.08-.55-24.11.15-16.07.54-24.11S380.7,506,381.74,498c1.05,8,1.59,16.07,2,24.11s.54,16.07.54,24.11-.15,16.07-.55,24.11S382.78,586.37,381.74,594.4Z"/></g><g id="LINE-7" data-name="LINE"><path class="cls-1" d="M892.08,203.33c1,8.3,1.58,16.61,1.95,24.91s.54,16.61.55,24.91-.15,16.61-.55,24.91-.91,16.61-1.95,24.91c-1-8.3-1.58-16.6-2-24.91s-.54-16.61-.55-24.91.16-16.61.56-24.91S891.05,211.63,892.08,203.33Z"/></g><g id="LINE-8" data-name="LINE"><path class="cls-1" d="M369.37,498c1,8,1.58,16.07,1.95,24.11s.54,16.07.55,24.11-.15,16.07-.55,24.11-.91,16.07-1.95,24.1c-1-8-1.58-16.07-1.95-24.1s-.54-16.08-.55-24.11.16-16.07.56-24.11S368.34,506,369.37,498Z"/></g><g id="LINE-9" data-name="LINE"><path class="cls-1" d="M53.89,412.62c-1-8.07-1.57-16.13-1.94-24.2s-.55-16.13-.56-24.2.15-16.13.55-24.19.91-16.13,2-24.2c1,8.07,1.59,16.13,2,24.2s.55,16.13.55,24.19-.16,16.13-.56,24.2S54.93,404.55,53.89,412.62Z"/></g><g id="ELLIPSE-6" data-name="ELLIPSE"><path class="cls-1" d="M219,508c-.37-.85-.69-1.69-1-2.53l-.49-1.27-.57-1.23c-.38-.82-.73-1.64-1.1-2.46l-1.22-2.39-.6-1.19-.65-1.17-1.31-2.32c-1-1.48-1.82-3-2.87-4.47a87.13,87.13,0,0,0-6.41-8.35c-1.2-1.27-2.32-2.61-3.61-3.79s-2.53-2.36-3.83-3.5a47.9,47.9,0,0,0-8.5-5.68l-2.29-1.05c-.77-.3-1.57-.54-2.35-.83a19.66,19.66,0,0,0-4.82-.93,13.71,13.71,0,0,0-9.2,2.49,16.26,16.26,0,0,0-3.62,3.6,28,28,0,0,0-2.65,4.67,20.59,20.59,0,0,1,1.44-5.36,16.62,16.62,0,0,1,3.23-4.77,15.13,15.13,0,0,1,4.94-3.32,17.58,17.58,0,0,1,5.89-1.24,21.21,21.21,0,0,1,5.91.6c.94.25,1.9.47,2.83.78l2.71,1.06a45.33,45.33,0,0,1,9.68,6.13,60.88,60.88,0,0,1,7.87,8.11c.58.73,1.12,1.5,1.68,2.25a25.45,25.45,0,0,1,1.59,2.3l1.51,2.37,1.35,2.44A54.46,54.46,0,0,1,219,508Z"/></g><g id="LINE-10" data-name="LINE"><path class="cls-1" d="M892.08,203.33a5.43,5.43,0,0,1-2-1.79,3.41,3.41,0,0,1-.54-1.78,3.35,3.35,0,0,1,.54-1.79,5.25,5.25,0,0,1,2-1.78,5.38,5.38,0,0,1,2,1.78,3.25,3.25,0,0,1,.53,1.79,3.32,3.32,0,0,1-.54,1.78A5.34,5.34,0,0,1,892.08,203.33Z"/></g><g id="LINE-11" data-name="LINE"><path class="cls-1" d="M381.74,498l15.76-9.53L413.31,479l31.62-18.9q31.68-18.79,63.43-37.46c21.15-12.48,42.38-24.8,63.58-37.19l63.72-36.95,63.86-36.72c21.34-12.16,42.62-24.39,64-36.47s42.75-24.18,64.16-36.2l32.18-17.93,16.09-9,16.13-8.88-15.76,9.53-15.8,9.46-31.62,18.9Q797.23,260,765.47,278.68c-21.14,12.48-42.39,24.79-63.58,37.19l-63.73,36.95L574.3,389.53c-21.33,12.16-42.62,24.39-64,36.47s-42.74,24.17-64.15,36.2L414,480.13l-16.09,9Z"/></g><g id="LINE-13" data-name="LINE"><path class="cls-1" d="M883.33,191.14a6.74,6.74,0,0,1,3.17-.44,6.26,6.26,0,0,1,2.46.8,6.12,6.12,0,0,1,1.92,1.72,6.74,6.74,0,0,1,1.2,3,6.74,6.74,0,0,1-3.17.44,6.32,6.32,0,0,1-2.45-.8,6.41,6.41,0,0,1-1.92-1.73A6.92,6.92,0,0,1,883.33,191.14Z"/></g><g id="LINE-14" data-name="LINE"><path class="cls-1" d="M53.89,308.69a5.33,5.33,0,0,1,2,1.78,3.35,3.35,0,0,1,.54,1.79,3.3,3.3,0,0,1-.53,1.78,5.39,5.39,0,0,1-2,1.79,5.39,5.39,0,0,1-2-1.79,3.39,3.39,0,0,1-.53-1.78,3.35,3.35,0,0,1,.54-1.79A5.42,5.42,0,0,1,53.89,308.69Z"/></g><g id="LINE-15" data-name="LINE"><path class="cls-1" d="M53.89,308.69a6.58,6.58,0,0,1,1.21-3A6.17,6.17,0,0,1,57,304a6,6,0,0,1,2.45-.8,6.62,6.62,0,0,1,3.17.44,6.58,6.58,0,0,1-1.21,3,6.06,6.06,0,0,1-1.92,1.73,6.15,6.15,0,0,1-2.45.79A6.71,6.71,0,0,1,53.89,308.69Z"/></g><g id="LINE-17" data-name="LINE"><path class="cls-1" d="M53.89,315.83a39.15,39.15,0,0,1,8.29,2.53,62.8,62.8,0,0,1,7.58,3.75,64.29,64.29,0,0,1,7,4.68,39.2,39.2,0,0,1,6.33,5.93,39.81,39.81,0,0,1-8.3-2.52,64.24,64.24,0,0,1-7.57-3.76,66.86,66.86,0,0,1-7-4.69A40,40,0,0,1,53.89,315.83Z"/></g><g id="LINE-18" data-name="LINE"><path class="cls-1" d="M152.82,373c18.56,9.52,36.88,19.47,55.11,29.57,9.14,5,18.19,10.18,27.28,15.27l27.14,15.51,27,15.74c8.95,5.33,17.95,10.58,26.86,16,17.86,10.73,35.64,21.62,53.16,32.94-18.56-9.51-36.88-19.46-55.11-29.56-9.14-5-18.19-10.18-27.28-15.27l-27.13-15.52-27-15.74c-9-5.33-18-10.58-26.86-16C188.12,395.15,170.35,384.26,152.82,373Z"/></g><g id="LINE-19" data-name="LINE"><path class="cls-1" d="M62.64,306.59a8.5,8.5,0,0,1-.77,3.66,9.59,9.59,0,0,1-1.79,2.68,9.45,9.45,0,0,1-2.58,1.94,8.22,8.22,0,0,1-3.61,1,8.33,8.33,0,0,1,.76-3.66,9.62,9.62,0,0,1,1.8-2.68A9.42,9.42,0,0,1,59,307.56,8.44,8.44,0,0,1,62.64,306.59Z"/></g><g id="LINE-20" data-name="LINE"><path class="cls-1" d="M62.64,306.59a6.17,6.17,0,0,1-2-.73c-.37-.25-.54-.5-.54-.74s.17-.5.53-.74a6,6,0,0,1,2-.74,5.79,5.79,0,0,1,2,.74c.37.24.54.49.54.74s-.17.49-.54.74A6.27,6.27,0,0,1,62.64,306.59Z"/></g><g id="LINE-21" data-name="LINE"><path class="cls-1" d="M62.64,303.64a25.94,25.94,0,0,1,4.8-5A40.29,40.29,0,0,1,73,294.8a39.34,39.34,0,0,1,6-2.87,25.64,25.64,0,0,1,6.76-1.64,25.34,25.34,0,0,1-4.79,5A42.06,42.06,0,0,1,69.4,302,26.55,26.55,0,0,1,62.64,303.64Z"/></g><g id="LINE-22" data-name="LINE"><path class="cls-1" d="M144,256.64l13.06-8,13.1-7.89L196.4,225q26.26-15.67,52.62-31.21c17.54-10.4,35.17-20.64,52.77-30.95l52.9-30.71,53.05-30.47c17.73-10.07,35.41-20.23,53.18-30.23s35.54-20,53.34-30L541,26.67l13.39-7.4L567.85,12l-13.05,8-13.1,7.9L515.49,43.6q-26.28,15.67-52.62,31.21c-17.54,10.4-35.18,20.63-52.77,31l-52.91,30.7-53,30.47C286.42,177,268.73,187.16,251,197.15s-35.53,20-53.34,30l-26.77,14.81-13.38,7.4Z"/></g><g id="LINE-23" data-name="LINE"><path class="cls-1" d="M567.85,12a5.25,5.25,0,0,1,1.28-2,1.8,1.8,0,0,1,2.57,0A5.09,5.09,0,0,1,573,12a5.23,5.23,0,0,1-1.28,2,1.81,1.81,0,0,1-2.57,0A5.17,5.17,0,0,1,567.85,12Z"/></g><g id="LINE-24" data-name="LINE"><path class="cls-1" d="M573,12c26.38,14,52.51,28.5,78.56,43.11,13,7.27,26,14.69,39,22L729.4,99.38l38.73,22.51c12.87,7.59,25.78,15.09,38.59,22.76C832.4,159.9,858,175.3,883.33,191.14c-26.38-14-52.51-28.5-78.56-43.11-13-7.27-26-14.69-39-22l-38.86-22.28L688.18,81.19c-12.86-7.58-25.77-15.09-38.59-22.76C623.92,43.18,598.32,27.78,573,12Z"/></g><g id="LINE-25" data-name="LINE"><path class="cls-1" d="M883.33,194.09l-15.6,9.44-15.64,9.37-31.3,18.71Q789.44,250.23,758,268.7c-20.93,12.35-42,24.55-62.94,36.82L632,342.1l-63.22,36.35c-21.12,12-42.19,24.15-63.36,36.1s-42.32,23.93-63.51,35.83L410,468.12,394.1,477l-16,8.79,15.6-9.44L409.37,467l31.29-18.72q31.35-18.61,62.79-37.09c20.93-12.36,42-24.55,62.94-36.82l63.09-36.58,63.22-36.34c21.12-12,42.19-24.14,63.36-36.1s42.32-23.93,63.51-35.83l31.86-17.75,15.93-8.87Z"/></g><g id="LINE-26" data-name="LINE"><path class="cls-1" d="M373,485.78c-18.87-9.7-37.49-19.82-56-30.1-9.29-5.1-18.49-10.35-27.74-15.53l-27.59-15.77-27.46-16c-9.1-5.41-18.26-10.75-27.32-16.25-18.16-10.91-36.24-22-54.07-33.47,18.87,9.69,37.49,19.82,56,30.09,9.29,5.1,18.48,10.36,27.73,15.53l27.59,15.78,27.45,16c9.11,5.42,18.26,10.76,27.32,16.25C337.08,463.23,355.16,474.29,373,485.78Z"/></g><g id="LINE-27" data-name="LINE"><path class="cls-1" d="M83.59,318.69a21.63,21.63,0,0,1-6.22-1.33,34,34,0,0,1-10.48-6,21.39,21.39,0,0,1-4.25-4.73,21.63,21.63,0,0,1,6.22,1.33A34.42,34.42,0,0,1,79.33,314,21.86,21.86,0,0,1,83.59,318.69Z"/></g><g id="LINE-28" data-name="LINE"><path class="cls-1" d="M696.73,278.4A107,107,0,0,1,683.38,273q-6.46-3.09-12.64-6.67t-12.11-7.6a108.73,108.73,0,0,1-11.39-8.85,106.44,106.44,0,0,1,13.36,5.44c4.31,2.06,8.52,4.3,12.64,6.68s8.16,4.91,12.1,7.61A108.63,108.63,0,0,1,696.73,278.4Z"/></g><g id="LINE-29" data-name="LINE"><path class="cls-1" d="M771,235.54C765.3,240,759.37,244,753.38,248s-12.1,7.61-18.28,11.19-12.46,7-18.83,10.25-12.83,6.35-19.54,9c5.66-4.48,11.59-8.5,17.58-12.42s12.1-7.6,18.29-11.17,12.46-7,18.83-10.25S764.26,238.21,771,235.54Z"/></g><g id="LINE-30" data-name="LINE"><path class="cls-1" d="M573,349.83a107,107,0,0,1-13.35-5.45c-4.31-2.06-8.51-4.29-12.64-6.67s-8.16-4.91-12.11-7.61a106.19,106.19,0,0,1-11.38-8.84,106.92,106.92,0,0,1,13.35,5.44c4.31,2.06,8.52,4.3,12.64,6.68s8.16,4.91,12.1,7.61A107.6,107.6,0,0,1,573,349.83Z"/></g><g id="LINE-31" data-name="LINE"><path class="cls-1" d="M647.24,307c-5.66,4.48-11.59,8.5-17.57,12.41s-12.11,7.61-18.29,11.19-12.46,7-18.83,10.25-12.83,6.35-19.54,9c5.67-4.48,11.59-8.5,17.58-12.42s12.1-7.61,18.29-11.17,12.46-7,18.83-10.25S640.54,309.64,647.24,307Z"/></g><g id="LINE-32" data-name="LINE"><path class="cls-1" d="M449.29,421.26a51.62,51.62,0,0,1-9.35-3.14,87.31,87.31,0,0,1-8.64-4.36,85.47,85.47,0,0,1-8.11-5.3,50.4,50.4,0,0,1-7.39-6.54,51.19,51.19,0,0,1,9.36,3.13,87.9,87.9,0,0,1,16.74,9.68A50.33,50.33,0,0,1,449.29,421.26Z"/></g><g id="LINE-33" data-name="LINE"><path class="cls-1" d="M523.53,378.4c-5.67,4.48-11.6,8.5-17.58,12.41s-12.11,7.61-18.29,11.18-12.46,7-18.82,10.26-12.84,6.34-19.55,9c5.67-4.48,11.59-8.5,17.58-12.42s12.1-7.61,18.29-11.17,12.46-7,18.83-10.25S516.82,381.07,523.53,378.4Z"/></g><g id="LINE-34" data-name="LINE"><path class="cls-1" d="M916.52,310.29c1,17.56,1.57,35.12,1.94,52.68.23,8.78.28,17.56.42,26.34l.14,26.34L918.88,442c-.14,8.78-.18,17.56-.41,26.34-.37,17.56-.91,35.12-2,52.68-1-17.56-1.59-35.12-1.95-52.68-.24-8.78-.28-17.56-.42-26.34L914,415.65l.14-26.34c.13-8.78.18-17.56.41-26.34C914.94,345.41,915.48,327.85,916.52,310.29Z"/></g><g id="LINE-35" data-name="LINE"><path class="cls-1" d="M381.44,829.94c-1-17.56-1.58-35.12-1.95-52.68-.23-8.78-.28-17.56-.42-26.34l-.13-26.34.13-26.34c.14-8.78.18-17.56.41-26.34.37-17.56.91-35.12,2-52.68,1,17.56,1.58,35.12,1.95,52.68.23,8.78.27,17.56.41,26.34l.13,26.34-.13,26.34c-.14,8.78-.19,17.56-.42,26.34C383,794.82,382.47,812.38,381.44,829.94Z"/></g><g id="LINE-36" data-name="LINE"><path class="cls-1" d="M22.65,633.51c-1-17.56-1.57-35.12-1.94-52.68-.23-8.78-.28-17.56-.42-26.34l-.14-26.34.13-26.34c.14-8.78.19-17.56.42-26.34.37-17.56.91-35.12,1.95-52.68,1,17.56,1.59,35.12,2,52.68.24,8.78.28,17.56.42,26.34l.13,26.34L25,554.49c-.13,8.78-.18,17.56-.41,26.34C24.23,598.39,23.69,616,22.65,633.51Z"/></g><g id="LINE-37" data-name="LINE"><path class="cls-1" d="M362.88,619.22c1,17.56,1.57,35.12,1.94,52.68.23,8.78.28,17.56.42,26.34l.14,26.34-.14,26.34c-.13,8.78-.18,17.56-.41,26.34-.37,17.56-.91,35.12-1.95,52.68-1-17.56-1.59-35.12-1.95-52.68-.24-8.78-.28-17.56-.42-26.34l-.13-26.34.14-26.34c.13-8.78.18-17.56.41-26.34C361.3,654.34,361.84,636.78,362.88,619.22Z"/></g><g id="ELLIPSE-7" data-name="ELLIPSE"><path class="cls-1" d="M191.92,544.89c.69-1.51,1.3-2.61,1.88-3.66s1.15-2,1.76-2.9a33.9,33.9,0,0,1,2.06-2.81,19.45,19.45,0,0,1,3-3,7.83,7.83,0,0,1,.67,4.46,9.63,9.63,0,0,1-1.54,4.1,9.33,9.33,0,0,1-3.29,3A6.72,6.72,0,0,1,191.92,544.89Z"/></g><g id="LINE-38" data-name="LINE"><path class="cls-1" d="M22.65,412.08a7.05,7.05,0,0,1,2,2.68,7,7,0,0,1,0,5.36,7.06,7.06,0,0,1-2,2.67,7,7,0,0,1-2.5-5.35,7.08,7.08,0,0,1,.54-2.68A7.16,7.16,0,0,1,22.65,412.08Z"/></g><g id="LINE-39" data-name="LINE"><path class="cls-1" d="M362.88,619.22a14.34,14.34,0,0,1,4.64-2,20.92,20.92,0,0,1,4.64-.54,19.92,19.92,0,0,1,4.64.54,14.09,14.09,0,0,1,4.64,2,14.12,14.12,0,0,1-4.64,2,19.38,19.38,0,0,1-4.64.53,19.8,19.8,0,0,1-4.64-.54A13.92,13.92,0,0,1,362.88,619.22Z"/></g><g id="LINE-40" data-name="LINE"><path class="cls-1" d="M362.88,619.22a14.9,14.9,0,0,1-.52-5.13,21.45,21.45,0,0,1,2.71-9.14,14.67,14.67,0,0,1,3.24-4,14.73,14.73,0,0,1,.53,5.14,21.47,21.47,0,0,1-2.73,9.14A14.93,14.93,0,0,1,362.88,619.22Z"/></g><g id="LINE-41" data-name="LINE"><path class="cls-1" d="M204.1,527.55c13.75,6.75,27.25,13.92,40.67,21.24,6.73,3.62,13.37,7.39,20,11.1l19.92,11.33,19.78,11.58c6.55,3.94,13.14,7.8,19.64,11.82,13,8,26,16.06,38.72,24.6-13.75-6.73-27.26-13.9-40.67-21.22-6.73-3.62-13.37-7.4-20.06-11.1l-19.91-11.35L262.46,564c-6.55-3.93-13.14-7.8-19.64-11.82C229.77,544.2,216.81,536.09,204.1,527.55Z"/></g><g id="LINE-42" data-name="LINE"><path class="cls-1" d="M22.65,422.79a160.45,160.45,0,0,1,16,7Q46.48,433.66,54,438t14.78,9.15a156,156,0,0,1,14.07,10.4,158.11,158.11,0,0,1-16-7Q59,446.7,51.51,442.34c-5-2.9-9.95-5.94-14.79-9.16A157.33,157.33,0,0,1,22.65,422.79Z"/></g><g id="LINE-43" data-name="LINE"><path class="cls-1" d="M35.77,408.94a14.84,14.84,0,0,1-1.85,4.81A21.57,21.57,0,0,1,31,417.59a21.08,21.08,0,0,1-3.67,3.09,14.51,14.51,0,0,1-4.71,2.11A14.63,14.63,0,0,1,24.51,418a20.26,20.26,0,0,1,2.89-3.83,21.08,21.08,0,0,1,3.67-3.09A14.88,14.88,0,0,1,35.77,408.94Z"/></g><g id="LINE-44" data-name="LINE"><path class="cls-1" d="M22.65,412.08a10.68,10.68,0,0,1,2.3-3.59,13.5,13.5,0,0,1,3-2.36,13,13,0,0,1,3.55-1.43,10.46,10.46,0,0,1,4.26-.2,10.37,10.37,0,0,1-2.29,3.6,13.58,13.58,0,0,1-6.57,3.78A10.45,10.45,0,0,1,22.65,412.08Z"/></g><g id="LINE-45" data-name="LINE"><path class="cls-1" d="M376,600.93a5.52,5.52,0,0,1-1.92,2,3.78,3.78,0,0,1-1.92.54,3.73,3.73,0,0,1-1.93-.53,5.56,5.56,0,0,1-1.92-2,5.43,5.43,0,0,1,1.92-2,3.85,3.85,0,0,1,1.93-.54,3.89,3.89,0,0,1,1.92.54A5.6,5.6,0,0,1,376,600.93Z"/></g><g id="LINE-46" data-name="LINE"><path class="cls-1" d="M368.31,600.93C354.55,594.18,341,587,327.6,579.67c-6.74-3.62-13.39-7.4-20.08-11.11l-19.94-11.35-19.8-11.59c-6.56-3.94-13.16-7.8-19.66-11.83-13.07-8-26-16.08-38.77-24.63,13.77,6.74,27.29,13.92,40.72,21.25,6.74,3.62,13.38,7.41,20.08,11.11l19.93,11.36,19.8,11.59c6.56,3.94,13.16,7.81,19.66,11.84C342.61,584.27,355.58,592.39,368.31,600.93Z"/></g><g id="LINE-50" data-name="LINE"><path class="cls-1" d="M82.86,436.13A98.52,98.52,0,0,1,70.11,431q-6.16-2.92-12-6.33t-11.51-7.26a97.51,97.51,0,0,1-10.79-8.5A96.69,96.69,0,0,1,48.53,414q6.16,2.91,12,6.33t11.5,7.26A99.93,99.93,0,0,1,82.86,436.13Z"/></g><g id="LINE-51" data-name="LINE"><path class="cls-1" d="M35.77,408.94a5.1,5.1,0,0,1-2-1.11,1.4,1.4,0,0,1,0-2.22,5.08,5.08,0,0,1,2-1.11,5.13,5.13,0,0,1,2,1.11,1.52,1.52,0,0,1,.53,1.11,1.58,1.58,0,0,1-.54,1.11A5.08,5.08,0,0,1,35.77,408.94Z"/></g><g id="LINE-52" data-name="LINE"><path class="cls-1" d="M35.77,404.5a17.74,17.74,0,0,1,3.55-4.31,25.32,25.32,0,0,1,4.26-3.08,24.68,24.68,0,0,1,4.8-2.15,17,17,0,0,1,5.51-.92,16.82,16.82,0,0,1-3.55,4.32,24.92,24.92,0,0,1-4.26,3.08,25.64,25.64,0,0,1-4.8,2.15A17.24,17.24,0,0,1,35.77,404.5Z"/></g><g id="LINE-53" data-name="LINE"><path class="cls-1" d="M381.44,619.22l16.53-10,16.58-9.89,33.16-19.8q33.23-19.68,66.52-39.24c22.18-13.07,44.45-26,66.68-39l66.82-38.73,66.95-38.51c22.36-12.75,44.68-25.58,67.09-38.25s44.81-25.37,67.25-38L882.74,329l16.87-9.41,16.91-9.33-16.54,10-16.57,9.9L850.24,350Q817,369.67,783.72,389.22c-22.18,13.07-44.45,26-66.68,39l-66.81,38.73-67,38.5c-22.36,12.75-44.68,25.58-67.09,38.25s-44.81,25.37-67.25,38l-33.72,18.83-16.87,9.4Z"/></g><g id="LINE-54" data-name="LINE"><path class="cls-1" d="M376,600.93a14.86,14.86,0,0,1,3.24,4,21.09,21.09,0,0,1,1.87,4.42,20.58,20.58,0,0,1,.85,4.72,14.9,14.9,0,0,1-.52,5.13,14.35,14.35,0,0,1-3.25-4,21.43,21.43,0,0,1-2.71-9.15A14.92,14.92,0,0,1,376,600.93Z"/></g><g id="LINE-55" data-name="LINE"><path class="cls-1" d="M903.39,296.44l-16.29,9.84L870.76,316l-32.68,19.52Q805.34,355,772.52,374.25c-21.86,12.88-43.81,25.62-65.72,38.42L641,450.85,575,488.8c-22.05,12.57-44.05,25.21-66.14,37.7s-44.16,25-66.28,37.43l-33.25,18.55-16.62,9.27L376,600.93l16.29-9.84,16.34-9.76,32.68-19.52q32.74-19.41,65.56-38.69c21.86-12.89,43.81-25.61,65.72-38.42l65.86-38.18,66-37.94c22-12.57,44-25.21,66.13-37.7s44.17-25,66.29-37.43L870.1,314.9l16.63-9.27Z"/></g><g id="LINE-56" data-name="LINE"><path class="cls-1" d="M916.52,310.29a7,7,0,0,1-2.5-5.35,6.71,6.71,0,0,1,.53-2.68,7.09,7.09,0,0,1,2-2.68,7.05,7.05,0,0,1,2.5,5.36,7,7,0,0,1-2.5,5.35Z"/></g><g id="LINE-57" data-name="LINE"><path class="cls-1" d="M892.08,286.52a27.72,27.72,0,0,1,7,1.54,43.58,43.58,0,0,1,6.37,2.79,42.85,42.85,0,0,1,5.85,3.73,27.47,27.47,0,0,1,5.19,5,27.46,27.46,0,0,1-7-1.53,45.12,45.12,0,0,1-12.21-6.54A27.72,27.72,0,0,1,892.08,286.52Z"/></g><g id="LINE-58" data-name="LINE"><path class="cls-1" d="M22.65,633.51c28.87,15.47,57.49,31.37,86,47.42,14.29,8,28.49,16.13,42.74,24.2L194,729.56l42.47,24.67c14.1,8.3,28.26,16.53,42.32,24.91,28.17,16.69,56.25,33.53,84.08,50.8-28.88-15.47-57.5-31.37-86-47.42-14.3-8-28.5-16.13-42.74-24.19l-42.59-24.44-42.46-24.68c-14.11-8.3-28.26-16.53-42.32-24.91C78.57,667.61,50.49,650.77,22.65,633.51Z"/></g><g id="LINE-59" data-name="LINE"><path class="cls-1" d="M362.88,829.94a14.13,14.13,0,0,1,4.64-2,19.8,19.8,0,0,1,4.64-.54,20.46,20.46,0,0,1,4.64.53,14.34,14.34,0,0,1,4.64,2,14.09,14.09,0,0,1-4.64,2,19.92,19.92,0,0,1-4.64.54,20.34,20.34,0,0,1-4.64-.54A14.34,14.34,0,0,1,362.88,829.94Z"/></g><g id="LINE-60" data-name="LINE"><path class="cls-1" d="M381.44,829.94,398,820l16.58-9.9,33.16-19.79q33.23-19.69,66.52-39.25c22.18-13.07,44.45-26,66.68-39l66.82-38.74,66.95-38.5c22.36-12.75,44.68-25.59,67.09-38.26s44.81-25.37,67.25-38l33.72-18.82,16.87-9.4L916.52,521,900,531l-16.57,9.9-33.17,19.8Q817,580.37,783.72,599.93c-22.18,13.07-44.45,26-66.68,39l-66.81,38.73-67,38.49c-22.36,12.76-44.68,25.59-67.09,38.26s-44.81,25.37-67.25,38L415.21,811.2l-16.87,9.41Z"/></g><g id="LINE-61" data-name="LINE"><path class="cls-1" d="M111.67,591.33a62.41,62.41,0,0,1-10.26-3.66,105.91,105.91,0,0,1-9.55-4.89,103.19,103.19,0,0,1-9-5.82,61.2,61.2,0,0,1-8.3-7.06,60.87,60.87,0,0,1,10.26,3.66,103.38,103.38,0,0,1,9.55,4.89,104.83,104.83,0,0,1,9,5.83A62.47,62.47,0,0,1,111.67,591.33Z"/></g><g id="LINE-62" data-name="LINE"><path class="cls-1" d="M161.15,562.76a61.89,61.89,0,0,1-2-10.71,104.13,104.13,0,0,1-.54-10.72,101.06,101.06,0,0,1,.53-10.71,60.92,60.92,0,0,1,2-10.72,60,60,0,0,1,2,10.72,101.06,101.06,0,0,1,.53,10.71,104.13,104.13,0,0,1-.54,10.72A61,61,0,0,1,161.15,562.76Z"/></g><g id="LINE-63" data-name="LINE"><path class="cls-1" d="M161.15,562.76a107.6,107.6,0,0,1-11.39,8.84q-5.91,4-12.1,7.61c-4.12,2.38-8.33,4.62-12.64,6.68a106.3,106.3,0,0,1-13.35,5.44,106.3,106.3,0,0,1,11.39-8.84q5.91-4.05,12.1-7.61t12.64-6.67A107,107,0,0,1,161.15,562.76Z"/></g><g id="LINE-64" data-name="LINE"><path class="cls-1" d="M111.67,548.47a63.17,63.17,0,0,1,2,10.72c.36,3.57.53,7.14.54,10.71a104,104,0,0,1-.54,10.72,61,61,0,0,1-2,10.71,62,62,0,0,1-2-10.71,107.57,107.57,0,0,1,0-21.43A61.26,61.26,0,0,1,111.67,548.47Z"/></g><g id="LINE-65" data-name="LINE"><path class="cls-1" d="M161.15,519.9a10.94,10.94,0,0,1-4.37-.26,14.67,14.67,0,0,1-3.67-1.5,14.19,14.19,0,0,1-3.13-2.42,11,11,0,0,1-2.42-3.67,11.16,11.16,0,0,1,4.38.26,14.61,14.61,0,0,1,6.8,3.93A11.05,11.05,0,0,1,161.15,519.9Z"/></g><g id="LINE-66" data-name="LINE"><path class="cls-1" d="M161.15,519.9a11.05,11.05,0,0,1-2.41,3.66,14.8,14.8,0,0,1-3.13,2.43,14.3,14.3,0,0,1-3.67,1.5,11,11,0,0,1-4.38.26,10.87,10.87,0,0,1,2.42-3.66,14,14,0,0,1,3.13-2.43,14.28,14.28,0,0,1,3.67-1.49A11.11,11.11,0,0,1,161.15,519.9Z"/></g><g id="LINE-67" data-name="LINE"><path class="cls-1" d="M125.26,540.63a11.07,11.07,0,0,1-2.42,3.65,14.17,14.17,0,0,1-3.13,2.43,14,14,0,0,1-3.66,1.5,11,11,0,0,1-4.38.26,11.05,11.05,0,0,1,2.41-3.66,14.43,14.43,0,0,1,3.13-2.42,14.6,14.6,0,0,1,3.67-1.5A11,11,0,0,1,125.26,540.63Z"/></g><g id="LINE-68" data-name="LINE"><path class="cls-1" d="M74.55,527a61.53,61.53,0,0,1,10.26,3.67,104.58,104.58,0,0,1,9.55,4.88,107.17,107.17,0,0,1,9,5.82,61.92,61.92,0,0,1,8.3,7.06,60.84,60.84,0,0,1-10.26-3.65,103.46,103.46,0,0,1-9.55-4.9,104.72,104.72,0,0,1-9-5.82A61.81,61.81,0,0,1,74.55,527Z"/></g><g id="LINE-69" data-name="LINE"><path class="cls-1" d="M87.23,519.72A10.07,10.07,0,0,1,85,523.25a12.45,12.45,0,0,1-2.9,2.3,12.75,12.75,0,0,1-3.43,1.37,10,10,0,0,1-4.16.12,10.22,10.22,0,0,1,2.19-3.53,12.15,12.15,0,0,1,2.9-2.29,12.61,12.61,0,0,1,3.44-1.36A10.15,10.15,0,0,1,87.23,519.72Z"/></g><g id="LINE-70" data-name="LINE"><path class="cls-1" d="M74.55,569.9a62.88,62.88,0,0,1-2-10.71c-.36-3.57-.53-7.14-.54-10.72a103.8,103.8,0,0,1,.54-10.71,61.26,61.26,0,0,1,2-10.72,62.23,62.23,0,0,1,2,10.72,106.67,106.67,0,0,1,.53,10.71,103.85,103.85,0,0,1-.54,10.72A61.92,61.92,0,0,1,74.55,569.9Z"/></g><g id="LINE-71" data-name="LINE"><path class="cls-1" d="M190.54,546.85a29.51,29.51,0,0,1-5.21,5.26,46.77,46.77,0,0,1-5.91,4,45.19,45.19,0,0,1-6.46,3.11,28.82,28.82,0,0,1-7.17,1.87,29.24,29.24,0,0,1,5.21-5.27,46.17,46.17,0,0,1,5.92-4,47.83,47.83,0,0,1,6.45-3.1A29.06,29.06,0,0,1,190.54,546.85Z"/></g><g id="LINE-73" data-name="LINE"><path class="cls-1" d="M205.07,526.69a30.89,30.89,0,0,1-5.36,5.36,49.46,49.46,0,0,1-6.07,4.12,47.83,47.83,0,0,1-6.6,3.2,30.29,30.29,0,0,1-7.33,2,30.21,30.21,0,0,1,5.36-5.36,49.18,49.18,0,0,1,6.07-4.13,50.92,50.92,0,0,1,6.61-3.19A30.8,30.8,0,0,1,205.07,526.69Z"/></g><g id="LINE-74" data-name="LINE"><path class="cls-1" d="M181.26,464.39a37.51,37.51,0,0,1-6.13,5.79,62.81,62.81,0,0,1-14.2,8.21,36.64,36.64,0,0,1-8.09,2.4A37.16,37.16,0,0,1,159,475a60.65,60.65,0,0,1,6.83-4.57,62.35,62.35,0,0,1,7.38-3.63A37.66,37.66,0,0,1,181.26,464.39Z"/></g><g id="LINE-76" data-name="LINE"><path class="cls-1" d="M206.76,481.81a74.6,74.6,0,0,1-9.26,7.6c-3.23,2.29-6.56,4.41-10,6.39s-6.91,3.79-10.51,5.45a73.93,73.93,0,0,1-11.23,4.21,74.61,74.61,0,0,1,9.26-7.62q4.84-3.43,10-6.37T195.54,486A75.3,75.3,0,0,1,206.76,481.81Z"/></g><g id="LINE-77" data-name="LINE"><path class="cls-1" d="M165.79,505.46a50.11,50.11,0,0,1,5.31,8.26,84.21,84.21,0,0,1,4,8.77,83,83,0,0,1,3,9.16,50.2,50.2,0,0,1,1.64,9.68,50.11,50.11,0,0,1-5.31-8.26,84.21,84.21,0,0,1-4-8.77,87.38,87.38,0,0,1-3-9.16A51.13,51.13,0,0,1,165.79,505.46Z"/></g><g id="LINE-78" data-name="LINE"><path class="cls-1" d="M179.71,541.33a21.92,21.92,0,0,1-1.87,6.08,34.28,34.28,0,0,1-7,9.9,21.4,21.4,0,0,1-5.09,3.82,21.6,21.6,0,0,1,1.88-6.08,33.79,33.79,0,0,1,3-5.26,34.4,34.4,0,0,1,3.92-4.64A22.53,22.53,0,0,1,179.71,541.33Z"/></g><g id="LINE-79" data-name="LINE"><path class="cls-1" d="M165.79,561.13a5.07,5.07,0,0,1-2.14,1,2.15,2.15,0,0,1-1.43-.2,2.09,2.09,0,0,1-.89-1.13,5.16,5.16,0,0,1-.18-2.38,5,5,0,0,1,2.15-1,1.94,1.94,0,0,1,2.31,1.35A4.94,4.94,0,0,1,165.79,561.13Z"/></g><g id="LINE-80" data-name="LINE"><path class="cls-1" d="M148.47,495.46a15.78,15.78,0,0,1,5.31.8,23.45,23.45,0,0,1,4.6,2,22.91,22.91,0,0,1,4.07,3,15.6,15.6,0,0,1,3.34,4.2,15.82,15.82,0,0,1-5.31-.8,23.54,23.54,0,0,1-8.66-5A15.93,15.93,0,0,1,148.47,495.46Z"/></g><g id="SPLINE"><path class="cls-1" d="M82.86,480.62c-.92-44.44-1.74-88.85-1.72-133.33l0-16.68q.14-8.36.53-16.72c.54-11.14,1.45-22.29,3-33.38q1.16-8.33,2.89-16.56l1.82-8.12.82-4.12c.35-1.41.77-2.85,1.15-4.27a29.54,29.54,0,0,1,4.1-8,33.84,33.84,0,0,1,13.35-11.7,22.19,22.19,0,0,1,9.07-2.31,17.17,17.17,0,0,1,4.76.72,23.1,23.1,0,0,1,4.31,1.59,33.3,33.3,0,0,1,7.49,5,34.74,34.74,0,0,1,9.93,14.71c.12.36.28.71.37,1.07l.26,1.06.52,2.13c.38,1.45.57,2.75.86,4.12.58,2.64,1.25,5.37,1.79,8.13,1,5.51,2.2,11,2.93,16.56,3.1,22.19,3.72,44.56,3.64,66.8s-.38,44.44-.64,66.66l-.56,33.32L153.22,464l-.37,16.67L152.47,464l-.29-16.66L151.61,414l-.8-66.64c-.38-22.17-1.1-44.34-4.43-66.14-.79-5.45-1.94-10.83-3-16.24-.54-2.68-1.21-5.35-1.83-8.13-.28-1.35-.51-2.8-.85-4l-.47-1.92-.24-1c-.08-.31-.21-.6-.31-.9a29.88,29.88,0,0,0-8.56-12.55,27.78,27.78,0,0,0-6.37-4.2A17.24,17.24,0,0,0,121.3,231a12.5,12.5,0,0,0-3.45-.54,9.1,9.1,0,0,0-1.7.15,11.41,11.41,0,0,0-1.76.35,21.28,21.28,0,0,0-3.48,1.3,29,29,0,0,0-11.43,10,22.71,22.71,0,0,0-2,3.28A26.09,26.09,0,0,0,96,249c-.34,1.25-.7,2.49-1,3.76l-.83,4.05L92.26,265c-1.15,5.37-2.11,10.8-2.94,16.24-1.66,10.89-2.68,21.9-3.33,32.94-.32,5.51-.54,11-.71,16.58L85,347.35,84.08,414l-.56,33.32L83.24,464Z"/></g><g id="LINE-81" data-name="LINE"><path class="cls-1" d="M417.08,378.32a142.82,142.82,0,0,1,13.26-9.91q6.86-4.59,14-8.69T458.82,352A139.88,139.88,0,0,1,474,345.44a139.87,139.87,0,0,1-13.26,9.92q-6.84,4.59-14,8.69c-4.75,2.73-9.58,5.33-14.51,7.75A141.87,141.87,0,0,1,417.08,378.32Z"/></g><g id="LINE-82" data-name="LINE"><path class="cls-1" d="M474,345.44a101,101,0,0,1,12.9,5.19c4.15,2,8.21,4.12,12.19,6.41s7.86,4.73,11.65,7.34A98.91,98.91,0,0,1,521.71,373a100.94,100.94,0,0,1-12.9-5.18q-6.22-3-12.18-6.42T485,354A100.12,100.12,0,0,1,474,345.44Z"/></g><g id="LINE-83" data-name="LINE"><path class="cls-1" d="M597.76,270.44a100.26,100.26,0,0,1,12.89,5.19c4.16,2,8.22,4.12,12.19,6.41s7.87,4.73,11.66,7.34A98.91,98.91,0,0,1,645.43,298a100.94,100.94,0,0,1-12.9-5.18c-4.16-2-8.21-4.13-12.19-6.42s-7.85-4.74-11.64-7.35A100.12,100.12,0,0,1,597.76,270.44Z"/></g><g id="LINE-84" data-name="LINE"><path class="cls-1" d="M525.34,312.25c5.51-4.38,11.29-8.32,17.12-12.15s11.8-7.43,17.84-10.92,12.15-6.82,18.37-10,12.53-6.17,19.09-8.75c-5.51,4.39-11.29,8.33-17.13,12.16s-11.8,7.43-17.83,10.91-12.16,6.82-18.38,10S531.89,309.67,525.34,312.25Z"/></g><g id="LINE-85" data-name="LINE"><path class="cls-1" d="M736.94,211.51a47.73,47.73,0,0,1,9,3,79.9,79.9,0,0,1,8.32,4.19,76.18,76.18,0,0,1,7.79,5.11,46.82,46.82,0,0,1,7.07,6.35,47.13,47.13,0,0,1-9-3A76.92,76.92,0,0,1,751.8,223a79.68,79.68,0,0,1-7.79-5.11A47.86,47.86,0,0,1,736.94,211.51Z"/></g><g id="LINE-86" data-name="LINE"><path class="cls-1" d="M649.06,244.39a141.36,141.36,0,0,1,13.25-9.91q6.86-4.59,14-8.69T690.79,218A139.88,139.88,0,0,1,706,211.51a139.87,139.87,0,0,1-13.26,9.92q-6.84,4.59-14,8.69c-4.75,2.73-9.58,5.33-14.51,7.75A142.58,142.58,0,0,1,649.06,244.39Z"/></g><path class="cls-1" d="M706,211.51a34.41,34.41,0,0,1,7.73-2,57.5,57.5,0,0,1,7.73-.54,54.43,54.43,0,0,1,7.74.54,33.37,33.37,0,0,1,7.73,2,33.92,33.92,0,0,1-7.73,2,55.93,55.93,0,0,1-7.74.53,54.4,54.4,0,0,1-7.73-.54A33.89,33.89,0,0,1,706,211.51Z"/><path class="cls-1" d="M368.31,600.93a5.6,5.6,0,0,1,1.92-2,4,4,0,0,1,1.93-.54,3.78,3.78,0,0,1,1.92.54,5.43,5.43,0,0,1,1.92,2,5.56,5.56,0,0,1-1.92,2,3.67,3.67,0,0,1-1.92.53,3.85,3.85,0,0,1-1.93-.54A5.52,5.52,0,0,1,368.31,600.93Z"/><path class="cls-1" d="M373,485.78a5,5,0,0,1,1.28-2,1.8,1.8,0,0,1,2.56,0,2.16,2.16,0,0,1,0,3.94,1.8,1.8,0,0,1-2.56,0A5,5,0,0,1,373,485.78Z"/><path class="cls-1" d="M369.37,498a8.27,8.27,0,0,1,3.1-2,9.31,9.31,0,0,1,3.09-.54,9.07,9.07,0,0,1,3.09.54,8.07,8.07,0,0,1,3.09,2,8.23,8.23,0,0,1-3.09,2,8.82,8.82,0,0,1-3.09.53,9.07,9.07,0,0,1-3.09-.54A8,8,0,0,1,369.37,498Z"/><path class="cls-1" d="M378.12,485.78a8.43,8.43,0,0,1,2.78,2.49,9.58,9.58,0,0,1,1.82,6.1,8.38,8.38,0,0,1-1,3.6,8.56,8.56,0,0,1-2.79-2.48,9.78,9.78,0,0,1-1.8-6.1A8.5,8.5,0,0,1,378.12,485.78Z"/><path class="cls-1" d="M373,485.78a8.5,8.5,0,0,1,1,3.61,9.7,9.7,0,0,1-.39,3.2,9.53,9.53,0,0,1-1.42,2.9,8.46,8.46,0,0,1-2.79,2.48,8.53,8.53,0,0,1-1-3.6,9.47,9.47,0,0,1,.4-3.21,9.71,9.71,0,0,1,1.42-2.89A8.47,8.47,0,0,1,373,485.78Z"/></svg>