<svg id="Layer_1" data-name="Layer 1" xmlns="http://www.w3.org/2000/svg" viewBox="0 0 161.55 149.54"><defs><style>.cls-1{fill:#1d1d1d;}</style></defs><path class="cls-1" d="M90,145.46s24.24-20.21,24.24-74.15c0-45.55-25-67.22-25-67.22s17.38,17.9,17.5,67.83C106.86,129.36,90,145.46,90,145.46Z"/><path class="cls-1" d="M69.24,127.79s18.18-15.16,18.18-55.62c0-34.15-18.77-50.41-18.77-50.41s13,13.43,13.13,50.87C81.88,115.71,69.24,127.79,69.24,127.79Z"/><path class="cls-1" d="M47.74,114.53s13.63-11.36,13.63-41.71C61.37,47.2,47.3,35,47.3,35s9.78,10.07,9.84,38.16C57.22,105.48,47.74,114.53,47.74,114.53Z"/></svg>