<svg id="Layer_1" data-name="Layer 1" xmlns="http://www.w3.org/2000/svg" viewBox="0 0 161.55 149.54"><defs><style>.cls-1{fill:#fff;}</style></defs><path class="cls-1" d="M10.09,84s20.2,24.24,74.15,24.24c45.54,0,67.22-25,67.22-25s-17.91,17.39-67.84,17.51C26.19,100.86,10.09,84,10.09,84Z"/><path class="cls-1" d="M10.09,84a46.47,46.47,0,0,0,7.28,6.22l2,1.36,2,1.26c1.34.87,2.76,1.61,4.16,2.37a102.28,102.28,0,0,0,17.72,7.18,142.14,142.14,0,0,0,37.8,5.42c3.19.17,6.38,0,9.57-.15a47.43,47.43,0,0,0,4.76-.37l4.76-.5,4.71-.83,2.35-.41,2.33-.56c1.54-.39,3.1-.74,4.63-1.16l4.56-1.44a94.21,94.21,0,0,0,17.35-7.89,69.73,69.73,0,0,0,15-11.61l.71.68A41.55,41.55,0,0,1,144,88.79c-1.36.75-2.77,1.41-4.16,2.08s-2.83,1.27-4.29,1.8a104.24,104.24,0,0,1-17.81,5.16l-2.27.48-2.28.38-4.58.74L104,100c-1.53.16-3.06.38-4.61.45-6.15.48-12.33.68-18.5.6A204.93,204.93,0,0,1,44.08,97.7c-3-.52-6-1.32-9-2L30.6,94.35c-1.48-.43-2.92-1-4.38-1.49s-2.86-1.15-4.3-1.72-2.8-1.28-4.17-2l-2-1.11c-.67-.39-1.32-.81-2-1.21A24.42,24.42,0,0,1,10.09,84Zm0,0a24.36,24.36,0,0,0,3.69,2.77c.66.39,1.31.81,2,1.19l2,1.08c1.38.68,2.78,1.33,4.2,1.93s2.84,1.18,4.31,1.65,2.9,1,4.38,1.44l4.45,1.25c3,.67,6,1.43,9,1.91a206.61,206.61,0,0,0,36.75,3.12q9.24.08,18.44-.68c1.54-.07,3.06-.3,4.59-.47l4.58-.54,4.55-.76,2.27-.39L117.6,97a103.93,103.93,0,0,0,17.65-5.2c1.44-.53,2.82-1.21,4.23-1.8s2.76-1.33,4.09-2.07a40.53,40.53,0,0,0,7.54-5.09l.72.68a69.05,69.05,0,0,1-15.28,11.76A95.28,95.28,0,0,1,119,103.2l-4.61,1.43c-1.55.42-3.12.76-4.68,1.14l-2.34.56-2.37.41-4.75.8-4.79.49a48,48,0,0,1-4.8.35c-3.2.08-6.41.3-9.61.11a142.37,142.37,0,0,1-37.93-5.61,103.75,103.75,0,0,1-17.7-7.44C24,94.66,22.61,93.9,21.28,93l-2-1.29L17.3,90.33A46.66,46.66,0,0,1,10.09,84Z"/><path class="cls-1" d="M27.76,63.24S42.91,81.42,83.37,81.42c34.16,0,50.42-18.77,50.42-18.77s-13.43,13-50.88,13.13C39.83,75.88,27.76,63.24,27.76,63.24Z"/><path class="cls-1" d="M27.76,63.24a44.84,44.84,0,0,0,11.6,8.38A76.9,76.9,0,0,0,52.66,77,106.42,106.42,0,0,0,81,81a98.83,98.83,0,0,0,14.29-.78,81.54,81.54,0,0,0,13.91-3.28,70.46,70.46,0,0,0,13-5.9,52,52,0,0,0,11.22-8.67l.72.68a31.2,31.2,0,0,1-5.85,3.93c-1,.56-2.08,1.06-3.13,1.57s-2.13,1-3.22,1.35a79.08,79.08,0,0,1-13.38,3.89l-1.7.36-1.72.29-3.44.55c-2.3.25-4.6.58-6.92.75-4.62.36-9.26.5-13.89.43a155.25,155.25,0,0,1-27.64-2.56c-2.28-.4-4.52-1-6.77-1.55l-3.33-1c-1.12-.32-2.19-.75-3.29-1.12a56.13,56.13,0,0,1-6.35-2.8A25.94,25.94,0,0,1,27.76,63.24Zm0,0A26.08,26.08,0,0,0,33.55,67a56.53,56.53,0,0,0,6.38,2.67c1.1.35,2.18.76,3.29,1.07l3.34.93c2.25.49,4.49,1.06,6.77,1.42a155.06,155.06,0,0,0,27.55,2.27,130.55,130.55,0,0,0,27.49-2.51A77.58,77.58,0,0,0,121.58,69c1.08-.4,2.11-.9,3.17-1.35s2.06-1,3.06-1.54a30.65,30.65,0,0,0,5.63-3.79l.72.68a52.05,52.05,0,0,1-11.49,8.85,71.37,71.37,0,0,1-13.19,5.94A83.64,83.64,0,0,1,95.4,81l-3.6.37c-1.2.12-2.39.26-3.6.27-2.41,0-4.82.2-7.22.06a107.19,107.19,0,0,1-28.47-4.29,77,77,0,0,1-13.27-5.61A45.47,45.47,0,0,1,27.76,63.24Z"/><path class="cls-1" d="M41,41.74S52.38,55.37,82.72,55.37c25.62,0,37.81-14.07,37.81-14.07s-10.07,9.78-38.15,9.84C50.07,51.22,41,41.74,41,41.74Z"/><path class="cls-1" d="M41,41.74A33.72,33.72,0,0,0,49.73,48a57.69,57.69,0,0,0,10,4,79.69,79.69,0,0,0,21.23,3,75,75,0,0,0,10.7-.59,61.79,61.79,0,0,0,10.41-2.46,52.92,52.92,0,0,0,9.72-4.42A39,39,0,0,0,120.16,41l.72.68a23.43,23.43,0,0,1-4.42,3,44.83,44.83,0,0,1-4.78,2.2,59.82,59.82,0,0,1-10.05,2.91A94.76,94.76,0,0,1,80.85,51.5a116.34,116.34,0,0,1-20.74-2c-1.71-.31-3.39-.77-5.08-1.18l-2.5-.75c-.83-.25-1.64-.57-2.46-.85a43,43,0,0,1-4.76-2.11A20,20,0,0,1,41,41.74Zm0,0a19.74,19.74,0,0,0,4.35,2.81,44.36,44.36,0,0,0,4.79,2c.83.26,1.64.57,2.47.79l2.5.69c1.69.37,3.37.79,5.08,1a117.14,117.14,0,0,0,20.66,1.67,97.89,97.89,0,0,0,20.58-1.9,57.66,57.66,0,0,0,9.9-2.91A43.6,43.6,0,0,0,116,43.77a22.54,22.54,0,0,0,4.2-2.83l.72.68a38.86,38.86,0,0,1-8.65,6.66,53.2,53.2,0,0,1-9.92,4.46A62.73,62.73,0,0,1,91.76,55.2l-2.7.27c-.9.09-1.8.2-2.71.2-1.81,0-3.62.15-5.43,0a80.5,80.5,0,0,1-21.36-3.25,58.58,58.58,0,0,1-10-4.24A34.54,34.54,0,0,1,41,41.74Z"/></svg>